<svg width="67" height="67" viewBox="0 0 67 67" fill="none" xmlns="http://www.w3.org/2000/svg">
<path d="M33.5 67C52.0015 67 67 52.0015 67 33.5C67 14.9985 52.0015 0 33.5 0C14.9985 0 0 14.9985 0 33.5C0 52.0015 14.9985 67 33.5 67Z" fill="url(#paint0_linear_870_2575)"/>
<path d="M48.1606 46.8481L36.8328 19.4609C36.1939 18.045 35.2442 17.3542 33.9922 17.3542H32.9907C31.7387 17.3542 30.789 18.045 30.1501 19.4609L25.2201 31.3932H21.4902C20.3764 31.4018 19.4698 32.2997 19.4612 33.4222V33.4481C19.4698 34.5619 20.3764 35.4684 21.4902 35.4771H23.4933L18.7877 46.8481C18.7014 47.0984 18.6496 47.3575 18.6496 47.6251C18.6496 48.264 18.8481 48.7648 19.2021 49.1533C19.5561 49.5419 20.0655 49.7318 20.7045 49.7318C21.1275 49.7232 21.5333 49.5937 21.8701 49.3433C22.2327 49.0929 22.4831 48.7303 22.6817 48.3158L27.8621 35.4684H31.4538C32.5676 35.4598 33.4742 34.5619 33.4828 33.4394V33.3876C33.4742 32.2738 32.5676 31.3673 31.4538 31.3586H29.5371L33.4914 21.5072L44.2667 48.3072C44.4653 48.7216 44.7157 49.0843 45.0783 49.3347C45.415 49.5851 45.8295 49.7146 46.2439 49.7232C46.8828 49.7232 47.3836 49.5332 47.7462 49.1447C48.1088 48.7562 48.2988 48.2554 48.2988 47.6165C48.3074 47.3575 48.2642 47.0898 48.1606 46.8481Z" fill="white"/>
<defs>
<linearGradient id="paint0_linear_870_2575" x1="58.4771" y1="12.4836" x2="8.62911" y2="54.4256" gradientUnits="userSpaceOnUse">
<stop stop-color="#B6509E"/>
<stop offset="1" stop-color="#2EBAC6"/>
</linearGradient>
</defs>
</svg>
