<svg xmlns="http://www.w3.org/2000/svg" width="151" height="152" fill="none"><circle cx="75.8566" cy="76.0624" r="75.0805" fill="#00DE7A"/><path fill="#fff" d="m96.301 63.8063 6.943-12.1301c.096-.2457.126-.513.086-.7742-.041-.2612-.149-.5069-.315-.7116s-.383-.361-.629-.4528c-.245-.0917-.511-.1156-.769-.0692-.345.0634-.657.2504-.876.5267l-7.0317 12.3184c-5.6163-2.542-11.7024-3.8563-17.8582-3.8563-6.1558 0-12.2419 1.3143-17.8582 3.8563l-7.0313-12.2897c-.2215-.2739-.5328-.4589-.8777-.5214-.3449-.0626-.7006.0013-1.0029.1801-.3023.1789-.5311.4609-.6453.7951-.1141.3343-.106.6987.0229 1.0274l6.9426 12.1045c-5.9963 3.296-11.0813 8.0509-14.7933 13.8329-3.7119 5.782-5.9331 12.4079-6.4618 19.2758h83.4229c-.531-6.8688-2.755-13.4951-6.469-19.277-3.714-5.7819-8.801-10.5364-14.799-13.8317v-.0032ZM56.6385 84.9286c-.6864-.0023-1.3568-.2092-1.9269-.5948s-1.0145-.9326-1.2773-1.5723c-.2627-.6396-.3322-1.3434-.1995-2.0228.1326-.6793.4614-1.304.945-1.7953.4042-.4071.9015-.7074 1.4481-.8743.5466-.167 1.1256-.1954 1.6857-.0829.5601.1126 1.0841.3627 1.5255.7282.4415.3656.7868.8352 1.0054 1.3674.2187.5323.3039 1.1107.2482 1.684-.0558.5734-.2508 1.124-.5678 1.6033-.317.4792-.7462.8722-1.2497 1.1442-.5034.272-1.0656.4147-1.6367.4153Zm38.4062 0c-.4565.0008-.9087-.089-1.3307-.2645-.4221-.1754-.8057-.433-1.1291-.758-.3234-.3251-.5801-.7111-.7556-1.1363-.1754-.4251-.2662-.8809-.267-1.3414-.0008-.4605.0882-.9166.2622-1.3424.1739-.4257.4292-.8127.7514-1.1389.3222-.3262.705-.5852 1.1264-.7622.4214-.177.8733-.2686 1.3297-.2694.9219-.0017 1.8068.3661 2.4599 1.0225.653.6564 1.0209 1.5477 1.0226 2.4777.0016.93-.363 1.8225-1.0137 2.4813-.6507.6588-1.5342 1.0299-2.4561 1.0316Z"/></svg>