<svg width="44" height="44" viewBox="0 0 44 44" fill="none" xmlns="http://www.w3.org/2000/svg">
<rect width="44" height="44" rx="12" fill="url(#paint0_linear_8903_23382)"/>
<g clip-path="url(#clip0_8903_23382)">
<mask id="mask0_8903_23382" style="mask-type:alpha" maskUnits="userSpaceOnUse" x="8" y="8" width="28" height="28">
<rect x="8" y="8" width="28" height="28" fill="#D9D9D9"/>
</mask>
<g mask="url(#mask0_8903_23382)">
<path d="M16.4001 27.8371C14.7852 27.8371 13.4086 27.2674 12.2704 26.128C11.1321 24.9886 10.563 23.6106 10.563 21.9939C10.563 20.3773 11.1321 19.0013 12.2704 17.8659C13.4086 16.7305 14.7852 16.1628 16.4001 16.1628H19.2851C19.6244 16.1628 19.911 16.2792 20.1448 16.5118C20.3786 16.7444 20.4955 17.0295 20.4955 17.3671C20.4955 17.7047 20.3786 17.9919 20.1448 18.2286C19.911 18.4653 19.6244 18.5837 19.2851 18.5837H16.4001C15.4512 18.5837 14.6446 18.9158 13.9803 19.5801C13.316 20.2444 12.9839 21.051 12.9839 22C12.9839 22.949 13.316 23.7556 13.9803 24.4199C14.6446 25.0841 15.4512 25.4163 16.4001 25.4163H19.2851C19.6244 25.4163 19.911 25.5326 20.1448 25.7652C20.3786 25.9979 20.4955 26.283 20.4955 26.6206C20.4955 26.9582 20.3786 27.2454 20.1448 27.4821C19.911 27.7188 19.6244 27.8371 19.2851 27.8371H16.4001ZM18.7538 23.1058C18.4408 23.1058 18.1769 23.0004 17.962 22.7897C17.7472 22.5789 17.6397 22.3177 17.6397 22.0061C17.6397 21.6946 17.7456 21.4314 17.9573 21.2165C18.169 21.0016 18.4314 20.8942 18.7444 20.8942H25.2465C25.5595 20.8942 25.8234 20.9996 26.0383 21.2103C26.2531 21.4211 26.3606 21.6823 26.3606 21.9938C26.3606 22.3054 26.2547 22.5686 26.043 22.7835C25.8313 22.9984 25.5689 23.1058 25.2559 23.1058H18.7538ZM24.7152 27.8371C24.3758 27.8371 24.0893 27.7208 23.8555 27.4882C23.6217 27.2556 23.5048 26.9705 23.5048 26.6329C23.5048 26.2952 23.6217 26.0081 23.8555 25.7714C24.0893 25.5346 24.3758 25.4163 24.7152 25.4163H27.6001C28.5491 25.4163 29.3557 25.0841 30.02 24.4199C30.6843 23.7556 31.0164 22.949 31.0164 22C31.0164 21.051 30.6843 20.2444 30.02 19.5801C29.3557 18.9158 28.5491 18.5837 27.6001 18.5837H24.7152C24.3758 18.5837 24.0893 18.4674 23.8555 18.2348C23.6217 18.0021 23.5048 17.717 23.5048 17.3794C23.5048 17.0418 23.6217 16.7546 23.8555 16.5179C24.0893 16.2812 24.3758 16.1628 24.7152 16.1628H27.6001C29.2151 16.1628 30.5917 16.7326 31.7299 17.872C32.8682 19.0114 33.4373 20.3894 33.4373 22.0061C33.4373 23.6227 32.8682 24.9987 31.7299 26.134C30.5917 27.2694 29.2151 27.8371 27.6001 27.8371H24.7152Z" fill="white"/>
</g>
</g>
<defs>
<linearGradient id="paint0_linear_8903_23382" x1="22" y1="0" x2="22" y2="44" gradientUnits="userSpaceOnUse">
<stop stop-color="#BE92FF"/>
<stop offset="1" stop-color="#7234CF"/>
</linearGradient>
<clipPath id="clip0_8903_23382">
<rect width="28" height="28" fill="white" transform="translate(8 8)"/>
</clipPath>
</defs>
</svg>
