<svg width="89" height="26" viewBox="0 0 89 26" fill="none" xmlns="http://www.w3.org/2000/svg">
<g id="edge" clip-path="url(#clip0_1397_5963)">
<g id="Navigation/header_L_sticky">
<g id="edge logo dark">
<path id="Fill-1" fill-rule="evenodd" clip-rule="evenodd" d="M35.9567 11.4857C35.7728 10.5109 35.254 9.631 34.49 8.99827C33.726 8.36555 32.7648 8.01979 31.7728 8.02081C30.7753 8.00215 29.804 8.34133 29.035 8.97692C28.2659 9.61251 27.7499 10.5025 27.5803 11.4857H35.9567ZM27.5543 13.7639C27.7745 14.7967 28.3396 15.7238 29.1566 16.3929C29.9737 17.062 30.9941 17.4331 32.05 17.4453C33.6788 17.4092 35.2306 16.745 36.3811 15.5916L38.1136 17.6792C36.527 19.2987 34.3687 20.2317 32.102 20.2778C31.1144 20.2767 30.1369 20.08 29.2258 19.6989C28.3147 19.3179 27.4882 18.7601 26.7939 18.0577C26.0996 17.3554 25.5514 16.5225 25.1809 15.6071C24.8103 14.6917 24.6249 13.7119 24.6352 12.7244C24.6258 11.7778 24.8062 10.8389 25.1657 9.96313C25.5252 9.08739 26.0565 8.29257 26.7283 7.62561C27.4001 6.95865 28.1988 6.43306 29.0771 6.0799C29.9554 5.72674 30.8956 5.55315 31.8421 5.5694C35.974 5.5694 39.0837 8.85238 39.0837 13.8331L27.5543 13.7639Z" fill="#0C2145"/>
<path id="Fill-3" fill-rule="evenodd" clip-rule="evenodd" d="M52.7004 12.8547C52.7004 11.9707 52.4382 11.1065 51.9471 10.3715C51.4559 9.63645 50.7579 9.06355 49.9411 8.72525C49.1244 8.38695 48.2257 8.29844 47.3587 8.4709C46.4916 8.64336 45.6952 9.06906 45.0701 9.69416C44.445 10.3193 44.0193 11.1157 43.8468 11.9827C43.6744 12.8498 43.7629 13.7485 44.1012 14.5652C44.4395 15.3819 45.0124 16.08 45.7474 16.5711C46.4825 17.0623 47.3466 17.3244 48.2307 17.3244C49.4109 17.3222 50.5426 16.8541 51.3796 16.022C52.2166 15.1898 52.6912 14.0609 52.7004 12.8807M52.7004 7.2416V0H55.5242V19.9231H53.1075V18.1906C51.7984 19.4772 50.0401 20.2041 48.2047 20.2176C46.2519 20.2176 44.3791 19.4419 42.9983 18.0611C41.6175 16.6802 40.8418 14.8075 40.8418 12.8547C40.8418 10.902 41.6175 9.02918 42.9983 7.64838C44.3791 6.26757 46.2519 5.49184 48.2047 5.49184C49.8573 5.49793 51.4493 6.11499 52.6744 7.22428" fill="#0C2145"/>
<path id="Fill-5" fill-rule="evenodd" clip-rule="evenodd" d="M69.1242 12.8549C69.1276 11.966 68.8669 11.0961 68.3752 10.3556C67.8835 9.61505 67.1829 9.03725 66.3623 8.6955C65.5417 8.35374 64.6381 8.26342 63.7661 8.436C62.8941 8.60858 62.093 9.03628 61.4644 9.66485C60.8358 10.2934 60.4081 11.0945 60.2355 11.9665C60.063 12.8385 60.1533 13.7421 60.495 14.5627C60.8368 15.3833 61.4146 16.0839 62.1551 16.5757C62.8957 17.0674 63.7656 17.3281 64.6545 17.3246C65.8371 17.3156 66.9688 16.8418 67.805 16.0055C68.6413 15.1692 69.1151 14.0376 69.1242 12.8549ZM71.9481 18.3554C71.9481 23.7953 68.6131 25.9002 65.3908 25.9002C63.9501 25.9102 62.54 25.4844 61.3455 24.6789L62.4629 22.3141C63.288 22.8435 64.2459 23.1288 65.2262 23.137C67.591 23.137 69.2108 21.5171 69.2108 18.3814C67.9707 19.5502 66.3325 20.2036 64.6285 20.2092C62.6757 20.2092 60.803 19.4334 59.4222 18.0526C58.0414 16.6718 57.2656 14.799 57.2656 12.8463C57.2656 10.8935 58.0414 9.02075 59.4222 7.63994C60.803 6.25913 62.6757 5.4834 64.6285 5.4834C65.5291 5.48242 66.4208 5.66032 67.2521 6.00679C68.0833 6.35327 68.8374 6.8614 69.4707 7.5017V5.76926H71.9481V18.3554Z" fill="#0C2145"/>
<path id="Fill-7" fill-rule="evenodd" clip-rule="evenodd" d="M85.176 11.4857C84.9922 10.5109 84.4734 9.631 83.7093 8.99827C82.9453 8.36555 81.9842 8.01979 80.9922 8.02081C79.9946 8.00215 79.0234 8.34133 78.2543 8.97692C77.4853 9.61251 76.9692 10.5025 76.7997 11.4857H85.176ZM76.7737 13.7639C76.9952 14.8024 77.5653 15.734 78.3895 16.4037C79.2136 17.0734 80.2421 17.441 81.304 17.4453C82.9116 17.3938 84.439 16.7308 85.5745 15.5916L87.3069 17.6792C85.7204 19.2987 83.5621 20.2317 81.2954 20.2778C80.3078 20.2767 79.3302 20.08 78.4192 19.6989C77.5081 19.3179 76.6815 18.7601 75.9872 18.0577C75.293 17.3554 74.7447 16.5225 74.3742 15.6071C74.0037 14.6917 73.8182 13.7119 73.8285 12.7244C73.8191 11.7778 73.9995 10.8389 74.359 9.96313C74.7185 9.08739 75.2499 8.29257 75.9217 7.62561C76.5935 6.95865 77.3921 6.43306 78.2705 6.0799C79.1488 5.72674 80.089 5.55315 81.0355 5.5694C85.1674 5.5694 88.2771 8.85238 88.2771 13.8331L76.7737 13.7639Z" fill="#0C2145"/>
<path id="Fill-10" fill-rule="evenodd" clip-rule="evenodd" d="M21.3356 2.91895L15.0122 20.304H0.373047L3.65602 11.2607H9.42505L12.4568 2.91895H21.3356Z" fill="#66EDA8"/>
<path id="Fill-12" fill-rule="evenodd" clip-rule="evenodd" d="M11.1396 0L7.8393 9.06067H0L3.30896 0H11.1396Z" fill="#66EDA8"/>
</g>
</g>
</g>
<defs>
<clipPath id="clip0_1397_5963">
<rect width="88.2592" height="25.9" fill="white"/>
</clipPath>
</defs>
</svg>
