<svg width="137" height="28" viewBox="0 0 137 28" fill="none" xmlns="http://www.w3.org/2000/svg">
<g id="exodus" clip-path="url(#clip0_1397_5934)">
<g id="Clip path group">
<mask id="mask0_1397_5934" style="mask-type:luminance" maskUnits="userSpaceOnUse" x="0" y="0" width="137" height="28">
<g id="clip0_2_120">
<path id="Vector" d="M137 0H0V27.7971H137V0Z" fill="white"/>
</g>
</mask>
<g mask="url(#mask0_1397_5934)">
<g id="Group">
<path id="Vector_2" d="M27.9331 7.76148L15.9658 0V4.33982L23.6431 9.27378L22.7394 12.1004H15.9658V15.6967H22.7394L23.6431 18.5233L15.9658 23.4572V27.7971L27.9331 20.0608L25.9765 13.9107L27.9331 7.76062V7.76148Z" fill="url(#paint0_linear_1397_5934)"/>
<path id="Vector_3" d="M5.55423 15.6967H12.3032V12.1004H5.52877L4.65056 9.27378L12.3032 4.33982V0L0.335938 7.76148L2.29258 13.9116L0.335938 20.0608L12.3287 27.7971V23.4582L4.65144 18.5233L5.55423 15.6967Z" fill="url(#paint1_linear_1397_5934)"/>
<g id="Mask group">
<mask id="mask1_1397_5934" style="mask-type:alpha" maskUnits="userSpaceOnUse" x="0" y="0" width="28" height="28">
<g id="Group_2">
<path id="Vector_4" d="M27.9331 7.76148L15.9658 0V4.33982L23.6431 9.27378L22.7394 12.1004H15.9658V15.6967H22.7394L23.6431 18.5233L15.9658 23.4572V27.7971L27.9331 20.0608L25.9765 13.9107L27.9331 7.76062V7.76148Z" fill="url(#paint2_linear_1397_5934)"/>
<path id="Vector_5" d="M5.55423 15.6967H12.3032V12.1004H5.52877L4.65056 9.27378L12.3032 4.33982V0L0.335938 7.76148L2.29258 13.9116L0.335938 20.0608L12.3287 27.7971V23.4582L4.65144 18.5233L5.55423 15.6967Z" fill="url(#paint3_linear_1397_5934)"/>
</g>
</mask>
<g mask="url(#mask1_1397_5934)">
<g id="Group_3">
<path id="Vector_6" d="M27.7515 0H0.351562V27.7971H27.7515V0Z" fill="url(#paint4_linear_1397_5934)"/>
</g>
</g>
</g>
<path id="Vector_7" d="M51.7436 7.64453V10.0742H40.4227V12.5611H50.0434V14.9916H40.4218V17.7227H51.7445V20.1532H37.5176V7.64453H51.7445H51.7436ZM53.3507 20.1532L59.8556 13.8233L53.5351 7.64453H57.5336L61.9931 12.1094L66.2694 7.64453H70.0101L63.7074 13.8233L70.2126 20.1532H66.1769L61.9931 15.5563L57.221 20.1532H53.3507Z" fill="black"/>
<path id="Vector_8" d="M78.0127 7.64453C83.2829 7.64453 86.4524 10.2549 86.4524 13.8989C86.4524 17.5429 83.2829 20.1532 78.0127 20.1532C72.7425 20.1532 69.5908 17.5429 69.5908 13.8989C69.5908 10.2549 72.7425 7.64453 78.0127 7.64453ZM78.0127 9.98293C74.8425 9.98293 72.5062 11.5604 72.5062 13.8989C72.5062 16.2373 74.8425 17.8148 78.0127 17.8148C81.2007 17.8148 83.537 16.2373 83.537 13.8989C83.537 11.5604 81.2007 9.98293 78.0127 9.98293ZM96.9577 7.64453C101.179 7.64453 103.722 9.96122 103.722 13.8798C103.722 17.8356 101.197 20.1532 96.9941 20.1532H88.4412V7.64453H96.9577ZM100.736 13.8798C100.736 11.4302 99.2616 10.0751 96.5884 10.0751H91.3354V17.7227H96.5884C99.2616 17.7227 100.736 16.3476 100.736 13.8798ZM113.293 20.1532C108.848 20.1532 105.477 18.1579 105.477 14.4809V7.64453H108.386V14.2029C108.386 16.4762 110.774 17.5298 113.293 17.5298C115.831 17.5298 118.22 16.4944 118.22 14.2029V7.64453H121.109V14.4809C121.109 18.1579 117.757 20.1532 113.293 20.1532ZM129.249 20.1532C126.861 20.1532 124.286 19.718 122.458 18.9024L123.41 16.5813C125.051 17.3249 127.309 17.7966 129.342 17.7966C131.675 17.7966 133.857 17.3066 133.857 16.4371C133.857 15.803 133.167 15.5302 131.73 15.313L127.663 14.8779C124.528 14.4609 122.999 13.3916 122.999 11.5057C122.999 9.07694 125.592 7.64453 129.398 7.64453C131.693 7.64453 134.846 8.06149 136.469 8.78679L135.518 10.9984C133.913 10.3452 131.189 10.0195 129.267 10.0195C127.29 10.0195 125.984 10.472 125.984 11.3059C125.984 11.8862 126.637 12.1763 128.316 12.4126L132.271 12.847C135.294 13.2639 136.86 14.2802 136.86 16.2555C136.86 18.7573 133.54 20.1532 129.249 20.1532Z" fill="black"/>
</g>
</g>
</g>
</g>
<defs>
<linearGradient id="paint0_linear_1397_5934" x1="24.062" y1="29.7082" x2="16.2097" y2="-3.09171" gradientUnits="userSpaceOnUse">
<stop stop-color="#0B46F9"/>
<stop offset="1" stop-color="#BBFBE0"/>
</linearGradient>
<linearGradient id="paint1_linear_1397_5934" x1="24.0624" y1="29.7082" x2="16.21" y2="-3.09171" gradientUnits="userSpaceOnUse">
<stop stop-color="#0B46F9"/>
<stop offset="1" stop-color="#BBFBE0"/>
</linearGradient>
<linearGradient id="paint2_linear_1397_5934" x1="24.062" y1="29.7082" x2="16.2097" y2="-3.09171" gradientUnits="userSpaceOnUse">
<stop stop-color="#0B46F9"/>
<stop offset="1" stop-color="#BBFBE0"/>
</linearGradient>
<linearGradient id="paint3_linear_1397_5934" x1="24.0624" y1="29.7082" x2="16.21" y2="-3.09171" gradientUnits="userSpaceOnUse">
<stop stop-color="#0B46F9"/>
<stop offset="1" stop-color="#BBFBE0"/>
</linearGradient>
<linearGradient id="paint4_linear_1397_5934" x1="2.10797" y1="6.25435" x2="15.8747" y2="16.6488" gradientUnits="userSpaceOnUse">
<stop offset="0.12" stop-color="#8952FF" stop-opacity="0.87"/>
<stop offset="1" stop-color="#DABDFF" stop-opacity="0"/>
</linearGradient>
<clipPath id="clip0_1397_5934">
<rect width="137" height="27.7971" fill="white"/>
</clipPath>
</defs>
</svg>
