<svg width="108" height="36" viewBox="0 0 108 36" fill="none" xmlns="http://www.w3.org/2000/svg">
<g id="ledger" clip-path="url(#clip0_1397_13087)">
<path id="Vector" d="M92.3864 33.7331V35.9994H107.999V25.7779H105.725V33.7331H92.3864ZM92.3864 0V2.26643H105.725V10.2221H107.999V0H92.3864ZM84.3344 17.5334V12.2669H87.9031C89.6431 12.2669 90.2677 12.8446 90.2677 14.4226V15.3557C90.2677 16.9779 89.6656 17.5334 87.9031 17.5334H84.3344ZM89.9995 18.4665C91.6278 18.0444 92.7647 16.5331 92.7647 14.7334C92.7647 13.6002 92.3191 12.5778 91.4713 11.7555C90.4012 10.733 88.9732 10.2221 87.1221 10.2221H82.1035V25.7774H84.3344V19.5777H87.6803C89.3974 19.5777 90.0892 20.2888 90.0892 22.0669V25.7779H92.364V22.4224C92.364 19.9779 91.7843 19.0448 89.9995 18.778V18.4665ZM71.2195 18.9775H78.0892V16.9332H71.2195V12.2664H78.7581V10.2221H68.9442V25.7774H79.093V23.7331H71.2195V18.9775ZM63.7466 19.7998V20.8664C63.7466 23.1108 62.9212 23.8444 60.8473 23.8444H60.3569C58.2819 23.8444 57.2786 23.1775 57.2786 20.0887V15.9108C57.2786 12.7999 58.3268 12.1551 60.4012 12.1551H60.8468C62.8763 12.1551 63.5233 12.9107 63.5452 14.9997H65.999C65.7762 11.933 63.7242 9.99996 60.6459 9.99996C59.1516 9.99996 57.9026 10.4668 56.9661 11.3553C55.561 12.6666 54.78 14.8889 54.78 17.9997C54.78 20.9998 55.4494 23.2221 56.832 24.5995C57.7685 25.5106 59.063 25.9995 60.3339 25.9995C61.6722 25.9995 62.8993 25.4659 63.5233 24.3107H63.8353V25.7774H65.8873V17.7556H59.843V19.7998H63.7466ZM44.0744 12.2664H46.506C48.8036 12.2664 50.0528 12.844 50.0528 15.9554V20.044C50.0528 23.1549 48.8036 23.7331 46.506 23.7331H44.0744V12.2664ZM46.7062 25.7779C50.9667 25.7779 52.5501 22.5557 52.5501 18.0003C52.5501 13.3781 50.8547 10.2226 46.6614 10.2226H41.8434V25.7779H46.7062ZM31.0707 18.9775H37.9407V16.9332H31.0707V12.2664H38.6096V10.2221H28.7951V25.7774H38.9443V23.7331H31.0707V18.9775ZM17.9109 10.2221H15.6361V25.7774H25.8963V23.7331H17.9109V10.2221ZM0 25.7779V36H15.6134V33.7331H2.2749V25.7779H0ZM0 0V10.2221H2.2749V2.26643H15.6134V0H0Z" fill="black"/>
</g>
<defs>
<clipPath id="clip0_1397_13087">
<rect width="108" height="36" fill="white"/>
</clipPath>
</defs>
</svg>
