<svg width="96" height="20" viewBox="0 0 96 20" fill="none" xmlns="http://www.w3.org/2000/svg">
<g id="LOBSTR" clip-path="url(#clip0_1397_6005)">
<path id="Vector" d="M90.7766 19.475L88.5259 13.3687H85.79V19.475H81.3256V1.67281H89.7744C92.8119 1.67281 95.435 1.67281 95.435 7.58844C95.435 9.98906 94.7787 11.6 93.4269 12.5116L92.94 12.8397L95.5 19.475H90.7766ZM85.6672 9.86969V5.6875H88.7938C89.4094 5.6875 90.8484 5.6875 90.8484 7.77812C90.8484 9.86938 89.4091 9.86938 88.7938 9.86938H85.6675L85.6672 9.86969ZM70.3219 19.475V5.90469H65.9619V1.67281H79.2506V5.90469H74.8906V19.475H70.3219ZM57.3456 19.58C54.6238 19.58 51.8631 18.8894 50.5987 18.3738L52.1456 14.6212C53.7906 15.1159 56.3119 15.3706 57.2097 15.3706C58.7647 15.3706 58.9972 14.5291 58.9972 14.0275C58.9972 13.5944 58.8441 12.8181 57.8184 12.48C57.395 12.3387 56.8591 12.2834 56.2384 12.2197C53.8778 11.975 50.9397 11.6719 50.9397 6.94438C50.9397 3.06719 52.9234 1.33812 57.3725 1.33812C59.8325 1.33812 62.2506 1.90937 63.4431 2.41625L62.1087 6.14281C60.8056 5.73 59.065 5.48969 57.8969 5.48969C57.5219 5.48969 57.1959 5.51281 56.925 5.55844C55.7934 5.76094 55.5572 6.40969 55.5572 6.91781C55.5572 7.39844 55.7672 8.03125 56.7675 8.31406C57.1416 8.40844 57.5853 8.45406 58.0994 8.50656C60.5422 8.75469 63.8869 9.09469 63.8869 13.9478C63.8869 17.7909 61.8088 19.58 57.3456 19.58ZM42.0519 19.47H33.565V1.67875H41.5138L42.2763 1.67281C43.3406 1.67281 44.5588 1.75281 45.5241 2.34469C46.6522 3.03625 47.2009 4.31781 47.2009 6.26156C47.2009 7.81656 46.6472 9.02094 45.5072 9.945L44.6534 10.7466L45.7266 11.2966C47.3897 11.8644 47.7394 13.5625 47.7394 14.8872C47.7394 18.9191 45.3725 19.475 42.8144 19.475L42.0519 19.47ZM37.9069 8.78281L40.7544 8.78375C41.1509 8.78375 41.535 8.7675 41.8812 8.57906C42.1966 8.40594 42.5728 8.0325 42.5728 7.23531C42.5728 5.68781 41.2506 5.68781 40.7528 5.68781L37.9069 5.68844V8.78281ZM37.9069 15.8097V12.7144L40.7516 12.7137C41.25 12.7137 42.5728 12.7137 42.5728 14.2628C42.5728 15.0606 42.1956 15.4334 41.8791 15.6066C41.5337 15.795 41.1487 15.8103 40.7516 15.8103L37.9069 15.8097ZM22.3859 20C17.3663 20 13.8597 16.9147 13.8597 12.4969C13.8594 8.31563 18.6262 1.43906 24.0091 0C22.7887 1.21969 21.1122 3.05844 20.1769 5.06562C18.8509 7.91125 18.7253 12.2553 18.8413 12.7656L19.0284 13.5894L19.8241 13.2816C20.6831 12.9494 21.5116 12.4703 22.2872 11.8572C22.5803 11.6241 22.8615 11.3763 23.1297 11.115C23.3145 10.9345 23.4936 10.7482 23.6666 10.5562C25.3734 8.65906 26.4672 6.20312 26.6438 3.99375C29.0738 5.61875 30.9131 9.16563 30.9131 12.4969C30.9131 16.9147 27.4069 20 22.3859 20ZM0.5 19.475V1.67281H5.01V15.2425H10.9094V19.475H0.5Z" fill="#1B8DA0"/>
</g>
<defs>
<clipPath id="clip0_1397_6005">
<rect width="95" height="20" fill="white" transform="translate(0.5)"/>
</clipPath>
</defs>
</svg>
