<svg xmlns="http://www.w3.org/2000/svg" width="145" height="145" fill="none"><circle cx="72.5819" cy="72.5526" r="71.6647" fill="#fff"/><mask id="a" width="68" height="77" x="40" y="35" maskUnits="userSpaceOnUse" style="mask-type:luminance"><path fill="#fff" d="m71.7216 35.4828-29.9139 17.266C40.6873 53.3949 40 54.5878 40 55.8772v34.556c0 1.2902.6873 2.4823 1.8077 3.1284l29.916 17.2794c1.1183.644 2.4972.644 3.6141 0l29.9112-17.2794c1.115-.6461 1.803-1.839 1.803-3.1284v-34.556c0-1.2894-.688-2.4823-1.81-3.1284l-29.9071-17.266C74.774 35.1612 74.1492 35 73.5243 35c-.6248 0-1.2496.1612-1.8105.4828"/></mask><g mask="url(#a)"><path fill="url(#b)" d="M137.281 49.817 52.9894 8.50003 9.7695 96.668l84.2898 41.319 43.2217-88.17Z"/></g><mask id="c" width="67" height="77" x="40" y="35" maskUnits="userSpaceOnUse" style="mask-type:luminance"><path fill="#fff" d="M40.7413 92.6272c.2861.3714.644.693 1.065.9345L67.467 108.384l4.2744 2.456c.6391.37 1.3676.526 2.0833.473.2386-.02.4771-.064.71-.13l31.5493-57.7689c-.241-.2627-.524-.4828-.84-.6674L85.6567 41.4358 75.303 35.4786c-.294-.1704-.6128-.2911-.9373-.3763L40.7413 92.6272Z"/></mask><g mask="url(#c)"><path fill="url(#d)" d="M4.29657 62.0375 63.8153 142.593 142.53 84.437 83.0076 3.88339 4.29657 62.0375Z"/></g><mask id="e" width="67" height="77" x="41" y="35" maskUnits="userSpaceOnUse" style="mask-type:luminance"><path fill="#fff" d="M73.1672 35.0199c-.502.0497-.9926.2059-1.4449.4629L41.8937 52.6991l32.1646 58.5849c.4473-.064.8876-.213 1.2852-.443l29.9135-17.2793c.923-.5354 1.555-1.4414 1.747-2.4681L74.2145 35.0788c-.2414-.0476-.4828-.0724-.7313-.0724-.0994 0-.1988.005-.2982.0142"/></mask><g mask="url(#e)"><path fill="url(#f)" d="M41.8929 35.0064v76.2796h65.0981V35.0064H41.8929Z"/></g><mask id="g" width="67" height="77" x="41" y="35" maskUnits="userSpaceOnUse" style="mask-type:luminance"><path fill="#fff" d="M73.1672 35.0199c-.502.0497-.9926.2059-1.4449.4629L41.8937 52.6991l32.1646 58.5849c.4473-.064.8876-.213 1.2852-.443l29.9135-17.2793c.923-.5354 1.555-1.4414 1.747-2.4681L74.2145 35.0788c-.2414-.0476-.4828-.0724-.7313-.0724-.0994 0-.1988.005-.2982.0142"/></mask><g mask="url(#g)"><path fill="url(#h)" d="M41.8929 35.0064v76.2796h65.0981V35.0064H41.8929Z"/></g><defs><linearGradient id="b" x1="95.11" x2="51.8931" y1="29.0936" y2="117.256" gradientUnits="userSpaceOnUse"><stop offset=".3" stop-color="#3E863D"/><stop offset=".5" stop-color="#55934F"/><stop offset=".8" stop-color="#5AAD45"/></linearGradient><linearGradient id="d" x1="34.4126" x2="113.13" y1="102.777" y2="44.6141" gradientUnits="userSpaceOnUse"><stop offset=".57" stop-color="#3E863D"/><stop offset=".72" stop-color="#619857"/><stop offset="1" stop-color="#76AC64"/></linearGradient><linearGradient id="f" x1="41.9149" x2="107.003" y1="73.1481" y2="73.1481" gradientUnits="userSpaceOnUse"><stop offset=".16" stop-color="#6BBF47"/><stop offset=".38" stop-color="#79B461"/><stop offset=".47" stop-color="#75AC64"/><stop offset=".7" stop-color="#659E5A"/><stop offset=".9" stop-color="#3E863D"/></linearGradient><linearGradient id="h" x1="41.9149" x2="107.003" y1="73.1481" y2="73.1481" gradientUnits="userSpaceOnUse"><stop offset=".16" stop-color="#6BBF47"/><stop offset=".38" stop-color="#79B461"/><stop offset=".47" stop-color="#75AC64"/><stop offset=".7" stop-color="#659E5A"/><stop offset=".9" stop-color="#3E863D"/></linearGradient></defs></svg>