<svg width="108" height="21" viewBox="0 0 108 21" fill="none" xmlns="http://www.w3.org/2000/svg">
<g clip-path="url(#clip0_1_2)">
<path d="M3.01805 21C6.2728 21 8.7188 18.2013 10.1785 15.9897C10.001 16.479 9.90234 16.9683 9.90234 17.4381C9.90234 18.7297 10.6519 19.6496 12.1314 19.6496C14.1631 19.6496 16.3329 17.8882 17.4573 15.9897C17.3784 16.2638 17.339 16.5182 17.339 16.753C17.339 17.6533 17.8519 18.2209 18.8973 18.2209C22.1915 18.2209 25.5054 12.4474 25.5054 7.39795C25.5054 3.46412 23.4934 0 18.4436 0C9.56696 0 0 10.7251 0 17.6533C0 20.3738 1.47943 21 3.01805 21ZM15.3861 6.96738C15.3861 5.98882 15.9384 5.30382 16.7472 5.30382C17.5362 5.30382 18.0885 5.98882 18.0885 6.96738C18.0885 7.94595 17.5362 8.65051 16.7472 8.65051C15.9384 8.65051 15.3861 7.94595 15.3861 6.96738ZM19.6075 6.96738C19.6075 5.98882 20.1598 5.30382 20.9685 5.30382C21.7575 5.30382 22.3098 5.98882 22.3098 6.96738C22.3098 7.94595 21.7575 8.65051 20.9685 8.65051C20.1598 8.65051 19.6075 7.94595 19.6075 6.96738Z" fill="#1C1C1C"/>
<path d="M29.45 18.8667H32.4088V15.9897C32.4088 14.6393 32.2905 14.1305 31.6001 12.7605L31.9748 12.5647C32.9809 14.8938 34.4012 15.7353 35.8608 15.7353C38.2082 15.7353 40.0821 13.6999 40.0821 10.5489C40.0821 7.53495 38.366 5.32339 35.9003 5.32339C34.4406 5.32339 32.9809 6.14539 31.9748 8.49395L31.6001 8.29822C32.0735 7.3588 32.4088 6.4781 32.4088 5.63653H29.45V18.8667ZM32.4088 10.5293C32.4088 9.23766 33.3951 7.80894 34.8548 7.80894C36.0383 7.80894 37.0049 8.76794 37.0049 10.5097C37.0049 12.232 36.0778 13.2498 34.8351 13.2498C33.4543 13.2498 32.4088 11.8602 32.4088 10.5293Z" fill="#1C1C1C"/>
<path d="M41.1621 15.4222H44.121V11.9776C44.121 9.55078 44.989 7.82852 46.6064 7.82852C47.6322 7.82852 47.9478 8.51351 47.9478 10.2162V15.4222H50.9067V9.74653C50.9067 6.65424 49.7823 5.32339 47.6322 5.32339C45.4229 5.32339 44.693 6.79124 43.8449 8.57223L43.47 8.37651C43.9829 7.28052 44.121 6.6151 44.121 5.63653V2.2507H41.1621V15.4222Z" fill="#1C1C1C"/>
<path d="M55.231 15.7353C57.1443 15.7353 58.2687 14.4828 59.1169 12.8779L59.472 13.054C59.0971 13.8173 58.7421 14.698 58.7421 15.4222H61.6418V10.0988C61.6418 6.92824 60.3004 5.32339 57.164 5.32339C54.0869 5.32339 52.5679 6.84996 52.2721 8.4548L55.1126 8.94408C55.2112 8.10251 55.9016 7.53495 57.0063 7.53495C58.1109 7.53495 58.7421 8.08295 58.7421 8.74837C58.7421 9.41381 58.0912 9.72694 56.3553 9.74653C53.7909 9.78562 51.8973 10.7055 51.8973 12.6626C51.8973 14.2674 53.1794 15.7353 55.231 15.7353ZM54.8364 12.4669C54.8364 10.9207 57.3218 11.9972 58.683 10.8034V11.1556C58.683 12.5452 57.4403 13.5629 56.1975 13.5629C55.5465 13.5629 54.8364 13.2889 54.8364 12.4669Z" fill="#1C1C1C"/>
<path d="M62.8143 15.4222H65.7731V11.9776C65.7731 9.55078 66.641 7.82852 68.2586 7.82852C69.2843 7.82852 69.5999 8.51351 69.5999 10.2162V15.4222H72.5588V9.74653C72.5588 6.65424 71.4345 5.32339 69.2843 5.32339C67.075 5.32339 66.3452 6.79124 65.4969 8.57223L65.1222 8.37652C65.6351 7.28052 65.7731 6.6151 65.7731 5.63653H62.8143V15.4222Z" fill="#1C1C1C"/>
<path d="M80.4397 15.4613V13.0344C79.8085 13.2498 78.0529 13.6216 78.0529 12.1929V7.98509H80.42V5.63653H78.0529V3.01398L75.0743 3.89468V5.63653H73.299V7.98509H75.0743L75.094 12.4278C75.094 15.6962 78.0332 16.1659 80.4397 15.4613Z" fill="#1C1C1C"/>
<path d="M86.4501 15.7353C89.4484 15.7353 91.7366 13.465 91.7366 10.5097C91.7366 7.57409 89.4484 5.32339 86.4501 5.32339C83.4518 5.32339 81.1438 7.57409 81.1438 10.5097C81.1438 13.465 83.4518 15.7353 86.4501 15.7353ZM84.2013 10.5293C84.2013 8.90494 85.1285 7.7698 86.4501 7.7698C87.7717 7.7698 88.6791 8.90494 88.6791 10.5293C88.6791 12.1538 87.7717 13.2889 86.4501 13.2889C85.1285 13.2889 84.2013 12.1538 84.2013 10.5293Z" fill="#1C1C1C"/>
<path d="M92.6534 15.4222H95.6118V11.9776C95.6118 9.45291 96.4206 7.82852 97.7225 7.82852C98.5711 7.82852 98.847 8.49395 98.847 10.2162V15.4222H101.806V11.9776C101.806 9.60947 102.674 7.82852 103.917 7.82852C104.745 7.82852 105.041 8.5918 105.041 10.2162V15.4222H108V9.74653C108 6.63467 106.974 5.32339 104.962 5.32339C102.871 5.32339 102.122 6.79124 101.392 8.5918L101.036 8.41566C101.728 6.36067 100.228 5.32339 98.7484 5.32339C96.7961 5.32339 96.0859 6.79124 95.297 8.57223L94.9414 8.37652C95.4345 7.28052 95.6118 6.6151 95.6118 5.63653H92.6534V15.4222Z" fill="#1C1C1C"/>
</g>
<defs>
<clipPath id="clip0_1_2">
<rect width="108" height="21" fill="white"/>
</clipPath>
</defs>
</svg>
