<svg xmlns="http://www.w3.org/2000/svg" width="93" height="93" fill="none"><g filter="url(#a)"><circle cx="46.3051" cy="46.6526" r="45.9389" fill="#24CAFF"/><path fill="#fff" d="M63.6954 39.1009c-.5886-.206-1.1822-.3968-1.7803-.5722.0992-.4111.1908-.824.275-1.2387 1.3477-6.6731.4666-12.049-2.5422-13.8186-2.8846-1.6973-7.6023.0724-12.3671 4.3025-.4694.4178-.9284.8475-1.3769 1.289-.3001-.2935-.6055-.5813-.9161-.8634-4.9936-4.5233-9.9989-6.4293-13.0043-4.6544-2.8819 1.702-3.7355 6.756-2.5224 13.0801.1207.6263.257 1.2491.4087 1.8685-.7082.2052-1.3922.4239-2.0466.6566-5.8543 2.0823-9.5932 5.346-9.5932 8.7308 0 3.4966 4.0135 7.0035 10.1115 9.1294.4944.1716.9929.3307 1.4953.4769-.1632.6672-.308 1.3385-.4345 2.0139-1.1565 6.2145-.2532 11.1487 2.621 12.8402 2.9688 1.7464 7.9513-.0489 12.8033-4.3755.3834-.3419.768-.7036 1.1538-1.0851.4854.4778.9837.9417 1.4949 1.3913 4.6996 4.1258 9.3408 5.7919 12.2129 4.096 2.966-1.7517 3.9297-7.0524 2.6782-13.5018-.0956-.4925-.2058-.9951-.3315-1.508.3499-.1054.6928-.2145 1.0282-.3275 6.3392-2.1426 10.4637-5.6065 10.4637-9.1498 0-3.3971-3.8594-6.6827-9.8314-8.7802ZM48.8316 29.592c4.0827-3.6247 7.8982-5.0557 9.6367-4.0328 1.8515 1.0895 2.5716 5.4829 1.4082 11.2445-.0762.3754-.1591.7492-.2485 1.1216-2.4362-.5633-4.9061-.9614-7.3938-1.1917-1.4251-2.0888-2.9867-4.0772-4.6741-5.9516.4141-.4074.838-.804 1.2715-1.19ZM34.5572 50.7729c.5001.9856 1.0227 1.9584 1.5677 2.9193.5561.9794 1.1348 1.9453 1.7361 2.897-1.7116-.1894-3.4125-.4683-5.0961-.836.4882-1.6083 1.0897-3.2801 1.7923-4.9803Zm-.0026-5.668c-.6879-1.6645-1.2765-3.3011-1.7571-4.8815 1.5777-.3602 3.26-.6546 5.0131-.8781-.5868.9337-1.1519 1.8811-1.6952 2.8421-.5425.96-1.0627 1.9324-1.5608 2.9175Zm1.2556 2.8343c.7279-1.5456 1.5119-3.0615 2.3521-4.5481.8393-1.4857 1.733-2.9366 2.6811-4.3541 1.6444-.1268 3.3307-.1932 5.0353-.1932 1.7121 0 3.4005.0669 5.0443.1947.9379 1.4142 1.8261 2.8609 2.6644 4.3401.8427 1.4819 1.6371 2.9908 2.3839 4.5264-.7388 1.5503-1.5308 3.0727-2.3762 4.5662-.8378 1.4848-1.7219 2.9404-2.653 4.3668-1.6405.1198-3.336.1813-5.0637.1813-1.7206 0-3.3946-.0546-5.0065-.1612-.9548-1.4227-1.8554-2.8805-2.7025-4.3734-.8425-1.4841-1.6289-2.9993-2.3592-4.5455Zm19.8312 5.736c.5563-.984 1.0909-1.9804 1.6036-2.9889.7029 1.6203 1.3225 3.2766 1.857 4.9628-1.7031.3902-3.4247.6898-5.1582.8968.5843-.9452 1.1505-1.9023 1.6976-2.8707Zm1.5812-8.5685c-.5109-.9894-1.0412-1.9678-1.5907-2.9356-.5407-.9526-1.1011-1.8931-1.6814-2.8213 1.7643.2273 3.4548.5293 5.0419.8991-.5094 1.6487-1.1001 3.2699-1.7698 4.8578ZM45.9049 32.5054c1.1501 1.2792 2.2361 2.6168 3.2542 4.0077-2.1775-.105-4.3559-.1055-6.5358-.0015 1.0746-1.4453 2.175-2.7881 3.2816-4.0062Zm-12.738-6.8746c1.8502-1.0926 5.9407.4654 10.2524 4.3709.2755.2496.5523.511.8294.7814-1.697 1.8741-3.2708 3.8609-4.7103 5.9472-2.4819.2271-4.9466.6179-7.379 1.17-.141-.576-.2677-1.1554-.38-1.7382-1.0394-5.4186-.3492-9.5056 1.3875-10.5313ZM30.4706 55.166c-.4584-.1337-.9134-.2792-1.3651-.4358-2.3417-.7516-4.5279-1.9365-6.4494-3.4953-.5504-.3855-1.0176-.8818-1.3726-1.4587-.3551-.5769-.5903-1.2219-.6914-1.8951 0-2.0538 3.0021-4.6741 8.0089-6.455.6284-.2226 1.2628-.4262 1.9032-.611.7434 2.433 1.6438 4.813 2.6951 7.1247-1.0645 2.3449-1.9761 4.7589-2.7287 7.2262Zm12.8015 10.9852c-1.8082 1.6943-3.9064 3.0345-6.1901 3.9536-.602.294-1.2571.459-1.9242.4844-.667.0257-1.3321-.0885-1.9541-.3357-1.7444-1.0261-2.4693-4.9882-1.4804-10.3023.1176-.628.2523-1.2526.4039-1.8731 2.4567.5383 4.9464.9059 7.452 1.1004 1.4519 2.0984 3.0376 4.097 4.7466 5.983-.3434.3388-.6946.6685-1.0537.9897Zm2.6982-2.7239c-1.1198-1.2325-2.2365-2.5959-3.327-4.0621 1.0586.0427 2.1369.064 3.2351.064 1.1272 0 2.2399-.0251 3.3381-.0756-1.0131 1.4135-2.0967 2.7734-3.2462 4.0737Zm14.3446 3.3532c-.051.6789-.2381 1.3398-.5493 1.9425-.3115.6023-.7407 1.1331-1.2611 1.5594-1.7427 1.0292-5.4694-.3084-9.4883-3.8369-.4608-.4044-.9244-.8354-1.3907-1.2931 1.6758-1.8929 3.2244-3.899 4.6351-6.0046 2.52-.2168 5.0222-.6105 7.4893-1.1776.1125.4642.2123.9191.2992 1.3646.5358 2.4443.6258 4.9681.2658 7.4457Zm2.0054-12.0368c-.302.102-.6126.2005-.929.2961-.7732-2.4443-1.7086-4.8319-2.8001-7.1467 1.0503-2.2835 1.9492-4.6363 2.6914-7.0426.5655.1673 1.1145.3434 1.6438.5293 5.1171 1.7967 8.2383 4.4541 8.2383 6.5013 0 2.1809-3.3709 5.0124-8.8444 6.8626Z"/><path fill="#fff" d="M46.3038 42.3992c1.0095 0 1.9965.2994 2.8358.8605.8393.5606 1.4938 1.3578 1.88 2.2904.3865.9329.4874 1.9592.2906 2.9493-.1969.9901-.6831 1.8995-1.397 2.6134s-1.6234 1.2002-2.6136 1.3969c-.9901.1971-2.0165.096-2.9492-.2905-.9326-.3862-1.7301-1.0406-2.2909-1.8798-.5608-.8394-.8602-1.8263-.8599-2.8358 0-1.3537.5376-2.6522 1.4947-3.6092.9575-.9574 2.2557-1.4952 3.6095-1.4952Z"/></g><defs><filter id="a" width="111.478" height="117.604" x="-6.98401" y="-7.86152" color-interpolation-filters="sRGB" filterUnits="userSpaceOnUse"><feFlood flood-opacity="0" result="BackgroundImageFix"/><feBlend in="SourceGraphic" in2="BackgroundImageFix" result="shape"/><feColorMatrix in="SourceAlpha" result="hardAlpha" values="0 0 0 0 0 0 0 0 0 0 0 0 0 0 0 0 0 0 127 0"/><feOffset dx="12.2504" dy="17.1505"/><feGaussianBlur stdDeviation="14.7004"/><feComposite in2="hardAlpha" k2="-1" k3="1" operator="arithmetic"/><feColorMatrix values="0 0 0 0 0.98875 0 0 0 0 0.4375 0 0 0 0 1 0 0 0 1 0"/><feBlend in2="shape" mode="hard-light" result="effect1_innerShadow_5_887"/><feColorMatrix in="SourceAlpha" result="hardAlpha" values="0 0 0 0 0 0 0 0 0 0 0 0 0 0 0 0 0 0 127 0"/><feOffset dx="3.67511" dy="3.67511"/><feGaussianBlur stdDeviation="1.83756"/><feComposite in2="hardAlpha" k2="-1" k3="1" operator="arithmetic"/><feColorMatrix values="0 0 0 0 1 0 0 0 0 1 0 0 0 0 1 0 0 0 0.9 0"/><feBlend in2="effect1_innerShadow_5_887" result="effect2_innerShadow_5_887"/><feColorMatrix in="SourceAlpha" result="hardAlpha" values="0 0 0 0 0 0 0 0 0 0 0 0 0 0 0 0 0 0 127 0"/><feOffset dx="-7.35022" dy="-8.57526"/><feGaussianBlur stdDeviation="9.18778"/><feComposite in2="hardAlpha" k2="-1" k3="1" operator="arithmetic"/><feColorMatrix values="0 0 0 0 0 0 0 0 0 0.297273 0 0 0 0 0.454167 0 0 0 0.8 0"/><feBlend in2="effect2_innerShadow_5_887" mode="hard-light" result="effect3_innerShadow_5_887"/></filter></defs></svg>