<svg width="44" height="44" viewBox="0 0 44 44" fill="none" xmlns="http://www.w3.org/2000/svg">
<rect width="44" height="44" rx="12" fill="url(#paint0_linear_8551_23399)"/>
<mask id="mask0_8551_23399" style="mask-type:alpha" maskUnits="userSpaceOnUse" x="8" y="8" width="28" height="28">
<rect x="8" y="8" width="28" height="28" fill="#D9D9D9"/>
</mask>
<g mask="url(#mask0_8551_23399)">
<path d="M20.3458 23.8559L18.0188 21.5289C17.777 21.2871 17.4722 21.1662 17.1044 21.1662C16.7367 21.1662 16.4319 21.2871 16.1901 21.5289C15.9484 21.7707 15.8286 22.0755 15.8309 22.4432C15.8333 22.811 15.9553 23.1158 16.1971 23.3575L19.4105 26.5709C19.6781 26.8368 19.9903 26.9697 20.347 26.9697C20.7038 26.9697 21.0151 26.8368 21.281 26.5709L27.768 20.0839C28.0098 19.8421 28.1307 19.5385 28.1307 19.1731C28.1307 18.8076 28.0098 18.504 27.768 18.2622C27.5262 18.0205 27.2215 17.8996 26.8537 17.8996C26.486 17.8996 26.1812 18.0205 25.9394 18.2622L20.3458 23.8559ZM22 33.9038C20.3489 33.9038 18.7997 33.5916 17.3524 32.9671C15.9052 32.3425 14.6462 31.495 13.5756 30.4244C12.505 29.3538 11.6575 28.0949 11.033 26.6476C10.4084 25.2003 10.0962 23.6511 10.0962 22C10.0962 20.3489 10.4084 18.7997 11.033 17.3524C11.6575 15.9052 12.505 14.6462 13.5756 13.5756C14.6462 12.505 15.9052 11.6575 17.3524 11.033C18.7997 10.4084 20.3489 10.0962 22 10.0962C23.6511 10.0962 25.2003 10.4084 26.6476 11.033C28.0949 11.6575 29.3538 12.505 30.4244 13.5756C31.495 14.6462 32.3425 15.9052 32.9671 17.3524C33.5916 18.7997 33.9038 20.3489 33.9038 22C33.9038 23.6511 33.5916 25.2003 32.9671 26.6476C32.3425 28.0949 31.495 29.3538 30.4244 30.4244C29.3538 31.495 28.0949 32.3425 26.6476 32.9671C25.2003 33.5916 23.6511 33.9038 22 33.9038Z" fill="white"/>
</g>
<defs>
<linearGradient id="paint0_linear_8551_23399" x1="22" y1="0" x2="22" y2="44" gradientUnits="userSpaceOnUse">
<stop stop-color="#E3D341"/>
<stop offset="1" stop-color="#E19E00"/>
</linearGradient>
</defs>
</svg>
