<svg width="110" height="30" viewBox="0 0 110 30" fill="none" xmlns="http://www.w3.org/2000/svg">
<path d="M0 4.29688L13.2201 0V29.7459C3.77704 25.7794 0 18.1777 0 13.8818V4.29688Z" fill="#0500FF"/>
<path d="M26.4411 4.29688L13.221 0V29.7459C22.6641 25.7794 26.4411 18.1777 26.4411 13.8818V4.29688Z" fill="url(#paint0_linear_1_31)"/>
<path d="M49.657 7.01688H54.9002V9.95376C56.6181 7.31432 58.5949 7.01688 61.4888 7.01688V12.207H60.1709C56.7032 12.207 55.043 13.8388 55.043 17.0713V22.5881H49.657V7.01688Z" fill="#0500FF"/>
<path d="M78.9829 22.5872H73.5978V21.1027C72.4218 22.4673 70.8193 23.0603 68.8434 23.0603C65.091 23.0603 62.9696 20.8355 62.9696 16.7436V7.01593H68.3546V15.5291C68.3546 17.4556 69.3001 18.5823 70.9035 18.5823C72.5069 18.5823 73.5969 17.484 73.5969 15.617V7.01593H78.982V22.5872H78.9829Z" fill="#0500FF"/>
<path d="M80.299 17.7805H85.3426C85.5723 18.9072 86.3457 19.3812 88.2063 19.3812C89.7255 19.3812 90.6133 19.0261 90.6133 18.3736C90.6133 17.8684 90.1831 17.5417 88.9531 17.2754L84.885 16.3556C82.1632 15.7342 80.7877 14.1618 80.7877 11.6395C80.7877 8.31644 83.2221 6.59677 87.9491 6.59677C92.6761 6.59677 94.9962 8.2725 95.3989 11.8628H90.3863C90.3012 10.9147 89.3256 10.3345 87.7222 10.3345C86.4336 10.3345 85.6044 10.749 85.6044 11.3732C85.6044 11.9068 86.1471 12.3214 87.238 12.5904L91.5056 13.6292C94.3125 14.3101 95.6606 15.7351 95.6606 18.0478C95.6606 21.2519 92.8812 23.15 88.1569 23.15C83.4326 23.15 80.3072 21.1036 80.3072 17.7805H80.3017H80.299Z" fill="#0500FF"/>
<path d="M110 11.8592V7.01593H96.7076V11.8619H100.674V22.5872H106.032V11.8592H110Z" fill="#0500FF"/>
<path d="M48.1579 11.8592V7.01593H34.8665V11.8619H38.8329V22.5872H44.1915V11.8592H48.1579Z" fill="#0500FF"/>
<defs>
<linearGradient id="paint0_linear_1_31" x1="22.9295" y1="-2.083" x2="12.9428" y2="29.3396" gradientUnits="userSpaceOnUse">
<stop offset="0.02" stop-color="#0000FF"/>
<stop offset="0.08" stop-color="#0094FF"/>
<stop offset="0.16" stop-color="#48FF91"/>
<stop offset="0.42" stop-color="#0094FF"/>
<stop offset="0.68" stop-color="#0038FF"/>
<stop offset="0.9" stop-color="#0500FF"/>
</linearGradient>
</defs>
</svg>
