<svg width="44" height="44" viewBox="0 0 44 44" fill="none" xmlns="http://www.w3.org/2000/svg">
<rect width="44" height="44" rx="12" fill="url(#paint0_linear_8908_23421)"/>
<mask id="mask0_8908_23421" style="mask-type:alpha" maskUnits="userSpaceOnUse" x="8" y="8" width="28" height="28">
<rect x="8" y="8" width="28" height="28" fill="#D9D9D9"/>
</mask>
<g mask="url(#mask0_8908_23421)">
<path d="M26.0576 30.4697C23.7114 30.4697 21.7135 29.6449 20.0638 27.9952C18.4142 26.3457 17.5893 24.3478 17.5893 22.0014C17.5893 19.6679 18.4142 17.6727 20.0638 16.0159C21.7135 14.3588 23.7114 13.5303 26.0576 13.5303C28.3911 13.5303 30.3864 14.3588 32.0435 16.0159C33.7005 17.6727 34.5291 19.6679 34.5291 22.0014C34.5291 24.3478 33.7005 26.3457 32.0435 27.9952C30.3864 29.6449 28.3911 30.4697 26.0576 30.4697ZM27.2365 21.533V18.992C27.2365 18.6613 27.123 18.3822 26.8958 18.1549C26.6685 17.9276 26.3896 17.814 26.0591 17.814C25.7291 17.814 25.4506 17.9267 25.2237 18.152C24.997 18.3774 24.8836 18.654 24.8836 18.9818V21.9746C24.8836 22.137 24.9103 22.2944 24.9636 22.4468C25.0168 22.5991 25.1013 22.7331 25.217 22.849L27.4999 25.1059C27.7361 25.3399 28.0143 25.4568 28.3343 25.4568C28.6544 25.4568 28.9297 25.3383 29.1603 25.1013C29.3976 24.8705 29.5162 24.595 29.5162 24.275C29.5162 23.9549 29.3993 23.678 29.1656 23.4443L27.2365 21.533ZM12.4041 18.6254C12.0749 18.6254 11.7954 18.5126 11.5656 18.2871C11.3357 18.0615 11.2208 17.7845 11.2208 17.4561C11.2208 17.1279 11.334 16.8489 11.5603 16.619C11.7866 16.3894 12.0645 16.2746 12.3939 16.2746H14.6563C14.9855 16.2746 15.2651 16.3873 15.4949 16.6129C15.7245 16.8385 15.8393 17.1154 15.8393 17.4439C15.8393 17.7721 15.7262 18.0511 15.4998 18.2809C15.2735 18.5106 14.9957 18.6254 14.6666 18.6254H12.4041ZM10.9965 23.1754C10.6665 23.1754 10.3881 23.0626 10.1612 22.8371C9.93426 22.6115 9.8208 22.3345 9.8208 22.0061C9.8208 21.6779 9.93426 21.3989 10.1612 21.169C10.3881 20.9394 10.6665 20.8246 10.9965 20.8246H14.6639C14.9939 20.8246 15.2723 20.9373 15.4993 21.1629C15.726 21.3885 15.8393 21.6654 15.8393 21.9939C15.8393 22.3221 15.726 22.6011 15.4993 22.8309C15.2723 23.0606 14.9939 23.1754 14.6639 23.1754H10.9965ZM12.4041 27.7254C12.0749 27.7254 11.7954 27.6126 11.5656 27.3871C11.3357 27.1615 11.2208 26.8845 11.2208 26.5561C11.2208 26.2279 11.334 25.9489 11.5603 25.719C11.7866 25.4894 12.0645 25.3746 12.3939 25.3746H14.6563C14.9855 25.3746 15.2651 25.4873 15.4949 25.7129C15.7245 25.9385 15.8393 26.2154 15.8393 26.5439C15.8393 26.8721 15.7262 27.1511 15.4998 27.3809C15.2735 27.6106 14.9957 27.7254 14.6666 27.7254H12.4041Z" fill="white"/>
</g>
<defs>
<linearGradient id="paint0_linear_8908_23421" x1="22" y1="0" x2="22" y2="44" gradientUnits="userSpaceOnUse">
<stop stop-color="#7986FF"/>
<stop offset="1" stop-color="#2939CF"/>
</linearGradient>
</defs>
</svg>
