<svg width="44" height="44" viewBox="0 0 44 44" fill="none" xmlns="http://www.w3.org/2000/svg">
<path d="M0 22C0 9.84974 9.84974 0 22 0V0C34.1503 0 44 9.84974 44 22V22C44 34.1503 34.1503 44 22 44V44C9.84974 44 0 34.1503 0 22V22Z" fill="#9391F7"/>
<path d="M17.9751 23.1297C19.7854 22.8427 20.9997 21.1427 20.7127 19.3324C20.4257 17.522 18.7257 16.3078 16.9153 16.5948C15.105 16.8818 13.8907 18.5817 14.1777 20.3921C14.4868 22.2025 16.1868 23.4167 17.9751 23.1297ZM26.6294 23.1297C28.4398 22.8427 29.6541 21.1427 29.367 19.3324C29.08 17.522 27.3801 16.3078 25.5697 16.5948C23.7594 16.8818 22.5451 18.5817 22.8321 20.3921C23.1191 22.2025 24.8191 23.4167 26.6294 23.1297Z" fill="white"/>
<path d="M21.7731 6.21838C12.7875 6.21838 5.50195 13.6364 5.50195 22.7765H9.65252C9.65252 15.9104 15.0394 10.369 21.751 10.369C28.4846 10.369 33.8495 15.9325 33.8495 22.7765H38C38.0442 13.6364 30.7586 6.21838 21.7731 6.21838Z" fill="white"/>
</svg>
