<svg width="44" height="44" viewBox="0 0 44 44" fill="none" xmlns="http://www.w3.org/2000/svg">
<path d="M0 22C0 9.84974 9.84974 0 22 0V0C34.1503 0 44 9.84974 44 22V22C44 34.1503 34.1503 44 22 44V44C9.84974 44 0 34.1503 0 22V22Z" fill="black"/>
<path d="M44 22C44 9.83836 34.1379 0 22 0C9.83836 0 0 9.83836 0 22C0 34.1379 9.83836 44 22 44C34.1379 44 44 34.1379 44 22Z" fill="url(#paint0_radial_8111_71880)"/>
<path d="M36.9594 15.125C36.8646 15.6703 36.7698 15.931 36.6275 16.2155C36.4853 16.5474 36.343 16.903 36.2008 17.6617C36.1534 17.9461 36.106 18.1832 36.0823 18.3729V18.3966C36.0349 18.7048 36.0111 18.9181 35.8926 19.2737C35.7978 19.5819 35.6318 20.0798 35.2288 20.6013C34.8969 21.028 34.3517 21.7629 33.6168 21.8578C33.5456 21.8578 33.4271 21.8578 33.356 21.8341C31.2698 20.7673 29.4918 19.9849 28.8754 19.819C28.1642 19.6056 28.259 18.041 28.3301 16.666C28.3775 16.0496 28.4012 15.4569 28.3775 14.9591C28.2827 13.2048 27.9745 11.3082 26.4573 10.3836C25.5564 9.83837 24.3711 9.67243 23.2568 9.67243C23.4702 9.5776 23.6836 9.43536 23.9443 9.29312C24.6081 8.91381 25.4142 8.43967 26.2439 8.34484C26.5047 8.32113 26.7655 8.29743 27.0262 8.25001C28.662 8.06036 30.0844 7.89441 31.578 8.41596C32.2655 8.65303 33.6405 9.41165 33.9961 10.1466C34.2568 10.6444 34.6836 11.0474 35.5133 11.8298C35.9637 12.2328 36.2482 12.4698 36.4616 12.6595C36.7698 12.8966 36.8172 12.9677 36.912 13.1336C37.1965 13.7026 37.1017 14.2953 36.9594 15.125Z" fill="white"/>
<path d="M29.3968 22.3082C29.4916 22.3319 29.5391 22.4504 29.4679 22.5453C29.2546 22.8772 28.9938 23.3513 28.6856 23.8966C28.5434 24.1573 28.4011 24.4181 28.2826 24.6078C27.8796 25.2953 27.8559 25.8879 27.8322 26.3384C27.8085 26.8362 27.7847 27.0496 27.4766 27.2392C27.2395 27.4052 26.9787 27.4526 25.2718 27.7134C24.9636 27.7608 24.8451 27.8082 24.7266 27.8793C24.7029 27.903 24.6554 27.903 24.6317 27.9267C24.5369 27.9742 24.4421 27.8793 24.4421 27.7845C24.4658 27.5474 24.4658 27.2392 24.4658 26.8362V26.7651C24.4658 26.4332 24.4658 26.1487 24.4421 25.9354C24.4184 25.5086 24.4184 25.319 24.5369 25.1293C24.6791 24.8923 24.7977 24.8211 24.9636 24.7026C25.2244 24.5367 25.58 24.3233 26.0779 23.6121C26.3623 23.2328 26.4097 23.0194 26.4572 22.8535C26.4809 22.7823 26.4809 22.7586 26.6942 22.5927C26.9076 22.4267 27.5951 21.9052 28.4722 22.0474C28.7567 22.0948 29.0649 22.1897 29.3968 22.3082Z" fill="white"/>
<path d="M22.5924 30.1789C22.545 30.2263 22.5213 30.25 22.4502 30.25C22.2605 30.25 22.142 30.2026 22.0708 30.1078C21.9049 29.8944 21.9286 29.4677 21.9523 29.2069L22.6872 29.0173C22.7346 29.4203 22.7583 29.9655 22.5924 30.1789Z" fill="white"/>
<path d="M22.6396 27.5712C22.6159 27.666 22.6159 27.7845 22.6159 27.9268C22.6159 27.9742 22.6159 28.0216 22.6159 28.069C22.6159 28.1875 22.6159 28.3772 22.6159 28.472C22.3789 28.5431 22.1892 28.5431 21.9521 28.5431C21.9521 28.472 21.9521 28.3535 21.9521 28.2824C21.9521 28.2349 21.9521 28.1638 21.9521 28.1164C21.9521 28.0453 21.9521 27.9979 21.9521 27.9268C21.9521 27.7845 21.9521 27.5712 21.9759 27.5C22.047 27.5 22.1181 27.4763 22.1892 27.4526C22.3315 27.4289 22.5448 27.3815 22.6634 27.4052C22.6634 27.4526 22.6634 27.5237 22.6396 27.5712Z" fill="white"/>
<path d="M21.3128 29.9655C21.2891 30.3448 21.1705 30.7953 20.8149 30.8664C20.649 30.8901 20.5779 30.8427 20.5304 30.7953C20.2934 30.5819 20.2697 29.9181 20.2934 29.444C20.4593 29.444 20.649 29.4203 20.886 29.3728C21.0283 29.3491 21.1705 29.3017 21.2891 29.278C21.3128 29.4677 21.3365 29.7047 21.3128 29.9655Z" fill="white"/>
<path d="M21.1466 28.6379L20.3643 28.9224C20.4117 28.6142 20.4591 28.1875 20.4828 27.903C20.5065 27.7133 20.5539 27.6422 20.5776 27.6185C20.5776 27.6185 20.6013 27.5948 20.625 27.5948C20.625 27.5948 20.625 27.5948 20.6487 27.5948H20.6724L21.1703 27.5711C21.1466 27.8082 21.1466 28.3297 21.1466 28.6379Z" fill="white"/>
<path d="M19.8659 28.4009C19.8185 28.5194 19.7711 28.8513 19.7474 29.0884L18.7754 29.0647C18.8228 28.7565 18.9176 28.4483 18.9888 28.2112C19.0836 27.9742 19.1547 27.7845 19.2495 27.7371C19.3444 27.6897 19.5577 27.666 19.7 27.7845C19.9133 27.9267 19.9607 28.1401 19.8659 28.4009Z" fill="white"/>
<path d="M19.5108 31.4117C19.4397 31.5065 19.3449 31.5776 19.25 31.5776C19.1315 31.6013 19.0604 31.5539 18.9893 31.5065C18.6811 31.222 18.7048 30.2974 18.7285 29.847C19.1315 29.7522 19.5819 29.6811 19.7953 29.6573C19.7953 30.013 19.819 30.9849 19.5108 31.4117Z" fill="white"/>
<path d="M18.2305 29.0173C18.1831 29.1358 18.1357 29.2544 18.112 29.3729C17.9934 29.4203 17.6378 29.3729 17.2822 29.3018L17.5193 27.7608C17.9223 27.6423 18.3965 27.6186 18.4913 27.7371C18.6572 27.9031 18.349 28.6854 18.2305 29.0173Z" fill="white"/>
<path d="M17.78 31.625C17.5903 31.8621 17.3058 31.9806 16.9028 31.9569C16.6183 31.9569 16.5235 31.8384 16.4761 31.7673C16.2627 31.4117 16.4761 30.5819 16.6894 30.0604L18.017 30.1315C18.0407 30.2263 18.0407 30.3448 18.0407 30.4634C18.0644 30.8664 18.017 31.3405 17.78 31.625Z" fill="white"/>
<path d="M28.78 20.4116C27.571 20.0797 27.6895 18.3254 27.7843 16.6185C27.8081 16.0259 27.8555 15.4569 27.8318 14.9828C27.7369 13.3944 27.4762 11.6638 26.196 10.8815C24.821 10.0517 22.5688 10.2414 21.1938 10.4073C20.696 10.5496 20.2218 10.6681 19.8425 10.6444C19.0365 10.597 18.3964 10.2651 17.8275 9.9569C17.4007 9.71983 17.0214 9.50647 16.6421 9.50647C16.6184 9.50647 16.5947 9.50647 16.5947 9.50647C15.5279 9.57759 15.03 9.83837 14.5796 10.2414C14.4611 10.3362 14.3188 10.6207 13.8684 11.9246C13.6313 12.5884 13.6076 12.944 13.5602 13.2759C13.5128 13.5841 13.4891 13.916 13.3231 14.4138C13.2046 14.7457 13.1098 15.0302 13.0387 15.3147C12.8253 16.0496 12.6356 16.6422 12.1141 17.3535C12.043 17.4246 11.9718 17.5668 11.877 17.6853C11.7585 17.875 11.6162 18.1121 11.4029 18.3728C11.2606 18.5625 10.9525 19.2737 10.9762 19.4871C10.9999 19.8427 11.1184 20.056 11.2369 20.2931C11.3555 20.5302 11.5214 20.8147 11.5451 21.2177V21.2888C11.5925 21.9052 11.4977 22.2134 10.3361 23.2565C9.60116 23.9203 9.0559 24.5603 8.7003 25.0345C8.67659 25.0819 8.7003 25.1293 8.77142 25.1293C8.79512 25.1293 8.79512 25.1293 8.79512 25.1293C8.81883 25.1293 8.84254 25.1293 8.86624 25.1293C8.88995 25.1293 8.91366 25.1293 8.93737 25.1293C8.96107 25.1293 8.98478 25.1293 9.00849 25.1293C9.29297 25.153 9.57745 25.2716 9.76711 25.4849C9.79081 25.5323 9.86193 25.5323 9.90935 25.5086C10.099 25.4375 10.3124 25.4375 10.502 25.4612C10.7391 25.4849 10.9999 25.556 11.1658 25.722C11.2132 25.7694 11.2843 25.7931 11.3555 25.7694C11.5451 25.722 11.7585 25.722 11.9481 25.7931C12.0904 25.8405 12.2326 25.9353 12.3275 26.0539C12.3986 26.125 12.5171 26.1487 12.6119 26.1013C12.6593 26.0776 12.7305 26.0302 12.8016 26.0065C13.0624 25.9116 13.3468 25.9591 13.5839 26.0539C13.7025 26.1013 13.821 26.125 13.9395 26.2198C14.1292 26.3621 14.2714 26.5517 14.3425 26.7651C14.39 26.8836 14.5559 26.931 14.6507 26.8362C14.8404 26.694 14.9826 26.6703 15.1249 26.7177C15.196 26.7414 15.2434 26.7888 15.2908 26.8599C15.3619 26.9547 15.4805 27.0496 15.5753 27.0022C15.9783 26.8836 16.4525 26.9547 16.8081 27.1444C16.9266 27.2155 17.0688 27.3103 17.14 27.4526V27.3815C17.14 27.3578 17.1637 27.3341 17.1874 27.3103L17.2585 27.2866C17.4481 27.2155 18.4438 26.931 18.8231 27.3341C18.8468 27.3578 18.8706 27.3578 18.8943 27.3341C18.9417 27.2866 18.9891 27.2392 19.0128 27.2392C19.2736 27.097 19.7003 27.0733 19.9848 27.3341C20.0322 27.3815 20.127 27.3578 20.1744 27.3103C20.1981 27.2629 20.2218 27.2392 20.2693 27.2155C20.3641 27.1207 20.5063 27.097 20.6486 27.097L21.1938 27.0733C21.3361 27.0733 21.7628 27.0259 21.8813 27.0022H21.905C21.9525 27.0022 22.0236 26.9785 22.0947 26.9547C22.3555 26.9073 22.6637 26.8362 22.9007 26.9547C23.1378 27.0733 23.1141 27.3341 23.0904 27.5711C23.0904 27.666 23.0667 27.7608 23.0667 27.8556C23.0667 27.903 23.0667 27.9504 23.0667 27.9978C23.0667 28.2112 23.0667 28.4009 23.043 28.5431L23.0667 28.6616C23.0667 28.6616 23.0667 28.6616 23.0667 28.6853C23.0904 28.7802 23.2089 28.8513 23.28 28.7802C23.4697 28.6616 23.6593 28.5194 23.7305 28.4246V28.4009C23.7305 28.3772 23.7542 28.3297 23.7779 28.2349C23.8016 28.0216 23.849 27.6185 23.849 26.7888C23.849 26.7414 23.849 26.7177 23.849 26.694C23.849 26.3858 23.849 26.125 23.8253 25.9116C23.8016 25.4612 23.7779 25.1056 24.015 24.75C24.2283 24.3944 24.4417 24.2759 24.655 24.1336C24.8921 23.9914 25.1529 23.8254 25.6033 23.2091C25.8167 22.9009 25.8404 22.7823 25.8641 22.6875C25.9115 22.4504 25.9826 22.3082 26.3382 22.0711C26.6227 21.8578 27.4525 21.2177 28.5904 21.4073C28.9697 21.4785 29.5624 21.6681 30.1787 21.9052C30.2025 21.9052 30.2262 21.9289 30.2499 21.9289H30.2736C30.8188 22.1422 31.3167 22.3793 31.6723 22.569C31.7434 22.6164 31.8382 22.5927 31.9093 22.5216C32.0279 22.3793 32.1464 22.3082 32.265 22.2134C32.3124 22.1897 32.3598 22.166 32.3835 22.1422C32.4072 22.1422 32.4072 22.1185 32.4072 22.1185C32.502 22.0474 32.502 21.8578 32.3835 21.8103C30.7951 21.028 29.2779 20.5539 28.78 20.4116ZM17.3533 20.7672C16.974 22.3793 14.4611 24.181 13.3231 24.181H13.2994C13.2757 24.181 13.252 24.181 13.252 24.181C13.2283 24.181 13.2046 24.181 13.1809 24.1573C13.1572 24.1573 13.1572 24.1573 13.1335 24.1573C12.9201 24.0862 12.6356 23.944 12.4223 23.7306C12.28 23.5884 12.1615 23.3987 12.1141 23.2328C12.1141 23.2091 12.0904 23.1616 12.0904 23.1379C12.0193 22.8535 11.9481 22.5216 12.1852 21.9526C12.2089 21.8815 12.2563 21.8103 12.28 21.7392C12.28 21.7155 12.3037 21.6918 12.3037 21.6681C12.3275 21.597 12.3512 21.5496 12.3749 21.5022C12.3986 21.4073 12.446 21.3362 12.4697 21.2888C12.4697 21.2651 12.4934 21.2414 12.4934 21.2177C12.5645 21.028 12.5645 20.9569 12.5882 20.8858C12.5882 20.8384 12.6119 20.7435 12.6356 20.6487C12.7068 20.3405 12.7542 20.0797 12.7779 19.8664C12.8253 19.4634 12.8964 19.1078 13.1098 18.7759C13.1572 18.7285 13.1809 18.681 13.2283 18.6336C13.252 18.6099 13.252 18.6099 13.2757 18.5862C13.2994 18.5625 13.2994 18.5625 13.3231 18.5388C13.3706 18.4914 13.4417 18.4677 13.4891 18.444C13.5128 18.444 13.5365 18.4203 13.5602 18.4203C13.6076 18.3966 13.655 18.3966 13.7025 18.3728C13.9158 18.3254 14.1529 18.3254 14.4374 18.3491C14.7456 18.3728 15.03 18.4203 15.2671 18.4914C15.4805 18.5388 15.6701 18.6099 15.8124 18.681C15.8361 18.681 15.8361 18.7047 15.8598 18.7047C15.8835 18.7285 15.9072 18.7285 15.9546 18.7522C16.002 18.7759 16.0257 18.7759 16.0731 18.7996C16.1206 18.8233 16.168 18.847 16.2154 18.8707L16.2628 18.8944C16.4287 18.9655 16.5947 19.0603 16.7132 19.1552C16.7843 19.2026 16.8318 19.25 16.8792 19.2974C16.9029 19.3211 16.9266 19.3211 16.9266 19.3448C16.9503 19.3685 16.9503 19.3685 16.974 19.3922C17.4718 19.819 17.4481 20.4116 17.3533 20.7672ZM18.5387 14.6272L18.4912 14.9116C18.3727 15.5754 18.1119 16.4763 17.1637 16.7134C16.2391 16.9267 16.0257 16.9741 15.3856 17.0216C15.3619 17.0216 15.3619 17.0216 15.3382 17.0216C14.8641 17.0216 13.9395 16.7134 13.7736 15.9785C13.6787 15.5043 13.8921 15.1487 14.224 14.5797C14.2714 14.4849 14.3425 14.3901 14.4137 14.2716C14.8878 13.4892 15.0537 12.9203 15.196 12.4698C15.3382 12.0194 15.4568 11.6638 15.765 11.3556C15.8361 11.2845 15.9072 11.2134 16.002 11.166C16.0494 11.1185 16.1206 11.0948 16.1917 11.0474C16.2865 11 16.3813 10.9763 16.4762 10.9289C16.6895 10.8578 16.9266 10.8341 17.14 10.8341C17.5904 10.8341 18.0408 10.9526 18.349 11.2134C18.4912 11.3319 18.7046 11.5453 18.8231 12.2328C18.8706 12.5884 18.7757 13.2285 18.5387 14.6272ZM25.3425 16.5237C25.0106 17.0927 24.8447 17.4009 24.5602 17.6379C23.9912 18.1121 23.3512 18.2069 22.8059 18.2069C22.4266 18.2069 22.0947 18.1358 21.8813 18.1121C21.3124 18.0172 20.293 17.8276 19.9374 16.9978C19.8662 16.8319 19.8662 16.7371 19.8662 16.5948C19.8662 16.4763 19.8662 16.2392 19.7951 15.7414V15.7177C19.7714 15.4806 19.7477 15.2198 19.7951 14.8879V14.8405C19.9848 13.8448 20.0559 13.7026 20.0796 13.6078C20.1744 13.4181 20.4115 13.3233 20.6249 13.4418C20.8145 13.5366 20.8856 13.7737 20.8145 13.9634C20.7908 14.0108 20.7434 14.2241 20.5775 15.0065V15.0539C20.53 15.2672 20.5537 15.4332 20.5775 15.6466V15.6703C20.6486 16.2392 20.6486 16.4763 20.6486 16.6185C20.6486 16.6422 20.6486 16.666 20.6486 16.6897V16.7134C20.7197 16.8793 20.8619 16.9741 21.0279 17.069C21.1464 17.1164 21.265 17.0216 21.2412 16.903C21.0753 16.0259 21.0753 15.0065 21.4072 14.3664C21.5257 14.153 21.7154 13.8211 21.905 13.4892C21.9287 13.4655 21.9525 13.4181 21.9525 13.3944C21.9762 13.3707 21.9762 13.347 21.9999 13.3233C22.0947 13.181 22.1658 13.0625 22.2369 12.944C22.2369 12.9203 22.2606 12.9203 22.2606 12.8966L22.2843 12.8728C22.3081 12.8491 22.3081 12.8254 22.3318 12.8017C22.3318 12.8017 22.3318 12.778 22.3555 12.778L22.3792 12.7543C22.3792 12.7306 22.4029 12.7306 22.4029 12.7069C22.474 12.6121 22.5451 12.5172 22.5925 12.4224C22.6874 12.3039 22.5688 12.1616 22.4503 12.2091C22.1184 12.3513 21.905 12.5172 21.8576 12.541C21.6917 12.6832 21.4309 12.6595 21.2887 12.4698C21.1464 12.3039 21.1701 12.0431 21.3598 11.9009C21.5731 11.7349 22.6637 10.9526 23.9675 11.3082C24.9158 11.569 25.39 12.3039 25.5796 12.5647C25.7218 12.778 26.196 13.4418 26.1723 14.3901C26.1723 15.0776 25.8878 15.5991 25.3425 16.5237Z" fill="white"/>
<path d="M16.8554 11.6638C16.7842 11.8298 16.7131 12.0194 16.6183 12.2328C16.4286 12.7306 16.1916 13.2996 16.073 13.513C15.8834 13.8686 15.7411 14.1056 15.6226 14.2716C15.4804 14.4849 15.3855 14.6509 15.2907 14.888C15.1485 15.291 15.1247 15.7414 15.2196 16.2392C14.9588 16.2155 14.5558 16.0496 14.5084 15.8125C14.4847 15.6466 14.5795 15.4806 14.864 14.9828C14.9114 14.888 14.9825 14.7694 15.0536 14.6746C15.5515 13.8211 15.7648 13.1811 15.9071 12.7069C16.073 12.2091 16.1441 11.9957 16.4049 11.8061C16.5709 11.7349 16.7131 11.6875 16.8554 11.6638Z" fill="white"/>
<path d="M16.3579 29.5862C16.0734 30.1552 15.7415 30.6767 15.5281 30.9375C15.3385 30.4634 15.0303 29.3491 15.1251 28.472C15.1251 28.4483 15.1251 28.4246 15.1251 28.4009C15.1488 28.1164 15.2199 27.8793 15.3622 27.6659C15.457 27.5237 15.6941 27.4526 15.9549 27.4526C16.1445 27.4526 16.3579 27.5 16.5475 27.5948C16.6424 27.6422 16.7846 27.7608 16.7846 28.069C16.832 28.4957 16.6187 29.0646 16.3579 29.5862Z" fill="white"/>
<path d="M31.5304 23.2564C31.5541 23.2802 31.5541 23.3039 31.5541 23.3276C31.483 23.4935 31.3645 23.6121 31.246 23.7543C31.1037 23.9202 30.9378 24.1099 30.7955 24.4181C30.5822 24.8448 30.511 25.2241 30.4873 26.2198C30.4399 27.3814 30.4873 28.0215 30.5348 28.4957C30.5585 28.9461 30.5822 29.2306 30.511 29.681C30.3451 30.5819 29.9658 31.1746 29.4679 31.9332C28.8516 32.8814 28.2352 33.8534 27.1921 34.1616C27.0973 34.1853 27.0972 34.1853 26.8128 34.1853C26.5757 34.1853 26.1727 34.1853 25.4378 34.209C24.0628 34.2564 23.3753 34.2802 22.8063 34.3987C22.1899 34.5172 21.8817 34.6595 21.5498 34.778C21.2654 34.8965 21.0046 34.9914 20.5067 35.1099C20.1985 35.181 19.7481 35.2284 18.2072 35.2521C16.5951 35.2521 15.6231 35.2521 14.3666 35.1099C12.6123 34.9202 11.7352 34.8017 11.1425 34.4935C9.76751 33.7586 9.17484 32.431 8.22656 30.25C8.22656 30.2263 8.25027 30.2026 8.27398 30.2026C8.32139 30.2263 8.3688 30.25 8.41622 30.2737C8.46363 30.2974 8.51105 30.2974 8.53475 30.2974C8.62958 30.3211 8.72441 30.3211 8.81923 30.2974C8.84294 30.2974 8.84294 30.2974 8.86665 30.2737C8.89036 30.2737 8.91406 30.2737 8.91406 30.2974C8.98518 30.4633 9.08001 30.6056 9.24596 30.7004C9.41191 30.7952 9.60156 30.7952 9.76751 30.7952C9.95717 30.7952 10.1468 30.7715 10.3365 30.7478C10.4313 30.7478 10.5261 30.7952 10.5735 30.8664C10.7395 31.2931 10.9529 31.5776 11.2848 31.625C11.3085 31.625 11.3322 31.625 11.3559 31.625C11.427 31.625 11.5455 31.6013 11.6878 31.5064C11.8063 31.4116 11.996 31.4827 12.0908 31.6013C12.1619 31.7198 12.2567 31.7909 12.3516 31.8621C12.6835 32.1939 13.4895 32.3599 14.1533 32.3599C14.5089 32.3599 14.8408 32.3125 15.0304 32.2177C15.3149 32.0754 15.3149 31.8858 15.2912 31.7909C15.2675 31.6487 15.2438 31.4827 15.2201 31.3405C15.2201 31.3168 15.2438 31.3168 15.2438 31.3405C15.2912 31.4353 15.3386 31.5302 15.4572 31.5539C15.4809 31.5539 15.4809 31.5539 15.5046 31.5539C15.6942 31.5539 15.9787 31.625 16.0261 31.7909C16.0498 31.8858 16.0973 31.9569 16.1447 32.0517C16.2632 32.2177 16.4766 32.431 16.927 32.4547H16.9507C17.4723 32.4547 17.8753 32.2888 18.136 31.9569C18.1598 31.9332 18.1598 31.9095 18.1835 31.8858C18.2783 31.7435 18.5628 31.7435 18.6813 31.8621C18.8235 31.9806 18.9895 32.0517 19.1791 32.0517C19.2029 32.0517 19.2503 32.0517 19.274 32.0517C19.511 32.028 19.7007 31.9095 19.8666 31.6961C19.9615 31.5539 20.0326 31.3879 20.08 31.1983C20.1037 31.1508 20.1748 31.1271 20.2223 31.1746C20.3171 31.2694 20.483 31.3642 20.7201 31.3642C20.7675 31.3642 20.8386 31.3642 20.9098 31.3405C21.3602 31.2457 21.5973 30.8664 21.6921 30.4633C21.6921 30.4396 21.7158 30.4396 21.7158 30.4633C21.8343 30.6056 22.0477 30.7715 22.4033 30.7715C22.427 30.7715 22.4507 30.7715 22.4507 30.7715C22.6404 30.7715 22.8063 30.6767 22.9248 30.5345C23.0671 30.3448 23.1145 30.0603 23.1382 29.7996C23.1382 29.7284 23.1856 29.6573 23.2804 29.6099C23.6598 29.4439 24.1339 29.0883 24.2761 28.8513C24.2761 28.8513 24.2761 28.8276 24.2998 28.8276C24.3235 28.7564 24.3947 28.709 24.4421 28.709C24.7503 28.6616 24.8688 28.5905 24.9873 28.5431C25.0822 28.4957 25.1533 28.472 25.3904 28.4246C27.121 28.1638 27.4529 28.0927 27.8322 27.8556C28.4011 27.4763 28.4248 26.9547 28.4485 26.4569C28.4723 26.0302 28.496 25.556 28.8279 24.9871C28.9464 24.7737 29.0886 24.5366 29.2309 24.2521C29.4916 23.778 29.8473 23.1142 30.108 22.7586C30.1554 22.6875 30.2503 22.6638 30.3214 22.7112C30.9141 22.9246 31.4356 23.1616 31.5304 23.2564Z" fill="white"/>
<path d="M14.6978 28.4246C14.6267 29.0173 14.5793 29.8233 14.6741 30.8664C14.6978 31.1509 14.7453 31.4591 14.7927 31.7673C14.7215 31.8147 14.4608 31.8858 14.034 31.8621C13.4177 31.8384 12.8013 31.6961 12.6116 31.4828L12.5879 31.4591C12.4457 31.3405 12.3271 31.2457 12.3271 31.0324C12.3271 30.9612 12.3509 30.8901 12.422 30.7716C12.4694 30.7242 12.5168 30.653 12.5642 30.5582C12.659 30.416 12.8013 30.25 12.9435 30.013C13.3465 29.3492 13.4888 29.1358 13.6784 28.875C13.7021 28.8513 13.7021 28.8276 13.7259 28.8039C13.8444 28.6617 13.9629 28.472 14.1763 28.1638C14.3185 27.9505 14.4371 27.7608 14.5556 27.6186C14.7215 27.3815 14.8401 27.263 14.9112 27.1918C14.9112 27.2867 14.8875 27.4289 14.8638 27.5711C14.769 27.8556 14.7215 28.1164 14.6978 28.4246Z" fill="white"/>
<path d="M14.3903 19.084C14.3903 19.1077 14.3903 19.1077 14.3903 19.084C14.2955 19.2026 14.2007 19.3448 14.0822 19.5819C13.774 20.2457 13.774 20.625 13.774 20.9332C13.774 21.0991 13.774 21.2177 13.7265 21.3599C13.7028 21.4547 13.6554 21.5733 13.5843 21.6918C13.4184 22.0948 13.1813 22.6164 13.2761 23.3276C13.1339 23.2564 12.9205 23.0905 12.8731 23.0194C12.8731 22.972 12.8494 22.9483 12.8494 22.9008C12.802 22.6875 12.7783 22.5452 12.8968 22.2133C13.2761 21.3599 13.3235 21.1465 13.3472 20.9095C13.3472 20.8621 13.3709 20.8146 13.3709 20.7435C13.4421 20.4116 13.4895 20.1271 13.5132 19.8901C13.5606 19.5345 13.608 19.2974 13.7265 19.1314C13.774 19.0603 13.8925 19.0366 14.0584 19.0366C14.1296 19.0366 14.2007 19.0366 14.2955 19.0603H14.3192C14.3903 19.084 14.3903 19.084 14.3903 19.084Z" fill="white"/>
<path d="M13.9161 27.5474C13.8924 27.3341 13.8687 27.1444 13.7739 26.931C13.7739 26.931 13.7502 26.8836 13.7502 26.8599C13.7265 26.8362 13.7265 26.8125 13.7028 26.7888L13.679 26.7651C13.6553 26.7414 13.6553 26.7414 13.6316 26.7414L13.6079 26.7177C13.5842 26.7177 13.5842 26.694 13.5605 26.694H13.5368C13.4183 26.6466 13.2997 26.5991 13.1575 26.5754C13.1338 26.5754 13.1101 26.5754 13.1101 26.5754C13.0864 26.5754 13.0864 26.5754 13.0627 26.5754H13.039C13.0153 26.5754 12.9915 26.5991 12.9441 26.5991C12.9204 26.5991 12.9204 26.6229 12.8967 26.6229L12.873 26.6466C12.8493 26.6703 12.8493 26.6703 12.8256 26.694L12.8019 26.7177V26.7414C12.7545 26.8125 12.7071 26.8836 12.6597 26.9547C12.5411 27.1207 12.4226 27.3104 12.304 27.4763C12.1855 27.6423 12.0907 27.7845 11.9722 27.9504C11.901 28.0453 11.8536 28.1164 11.7825 28.2112C11.7825 28.2349 11.7588 28.2349 11.7588 28.2586C11.8299 28.2823 11.901 28.2823 11.9722 28.306C12.1381 28.3298 12.304 28.3535 12.4463 28.3772C12.7782 28.4246 13.1338 28.4483 13.4657 28.4246C13.4894 28.4246 13.4894 28.4246 13.5131 28.4246C13.5842 28.306 13.7028 28.1638 13.8213 27.9741C13.8924 27.8793 13.9635 27.7845 14.0109 27.6897C13.9398 27.666 13.9161 27.5948 13.9161 27.5474Z" fill="white"/>
<path d="M12.7069 28.9461C12.6832 29.2069 12.3987 29.8707 11.9483 30.5108C11.569 31.0323 11.3319 31.1746 11.2845 31.1746C11.0948 31.1509 10.9289 30.7004 10.7866 30.25C10.7392 30.0604 10.6681 29.8944 10.6444 29.7285C10.5496 29.3966 10.5259 28.9224 10.5496 28.6379C10.9289 28.8513 11.5927 28.8987 12.5409 28.8987C12.5884 28.9224 12.6595 28.9224 12.7069 28.9461Z" fill="white"/>
<path d="M12.0429 26.8125C11.877 27.0733 11.711 27.3104 11.5451 27.5475C11.4503 27.666 11.3791 27.7845 11.2843 27.9031C11.2369 27.9742 11.1658 28.0453 11.1184 28.1164C10.9761 28.0927 10.8576 28.0453 10.7153 28.0216C10.5968 27.9979 10.502 27.9505 10.3835 27.9031C10.3597 27.9031 10.336 27.8794 10.3123 27.8794C10.2886 27.8556 10.2649 27.8082 10.2412 27.7845C10.2886 27.7134 10.3123 27.6186 10.3597 27.5475C10.4309 27.4052 10.502 27.263 10.5968 27.1207C10.7391 26.8837 10.905 26.6229 11.1658 26.4569C11.1895 26.4569 11.1895 26.4332 11.2132 26.4332C11.308 26.3858 11.4028 26.3384 11.5214 26.3147C11.5451 26.3147 11.6162 26.3147 11.6636 26.3147H11.6873C11.6873 26.3147 11.6873 26.3147 11.711 26.3147C11.7347 26.3147 11.7585 26.3384 11.8059 26.3384C11.8059 26.3384 11.8296 26.3384 11.8296 26.3621C11.8533 26.3858 11.877 26.3858 11.9007 26.4095C11.8533 26.3858 11.9481 26.4806 11.9481 26.4569C11.9955 26.5992 12.0192 26.6703 12.0429 26.8125Z" fill="white"/>
<path d="M10.763 26.125C10.4548 26.3621 10.2414 26.694 10.0755 27.0496C9.98067 27.2392 9.88584 27.4289 9.79102 27.6186C9.79102 27.6423 9.76731 27.666 9.76731 27.666C9.67248 27.6423 9.57765 27.6186 9.50653 27.5949C9.4117 27.5711 9.31688 27.5237 9.22205 27.5C9.17464 27.4763 9.15093 27.4526 9.10352 27.4289C9.19834 27.263 9.29317 27.097 9.41171 26.9311C9.55395 26.7177 9.71989 26.4806 9.88584 26.291C9.95696 26.2199 10.0281 26.125 10.0992 26.0776C10.194 26.0302 10.2889 26.0302 10.4074 26.0539C10.5259 26.0539 10.6445 26.0539 10.7393 26.1013C10.7156 26.1013 10.7393 26.125 10.763 26.125Z" fill="white"/>
<path d="M10.2891 30.1552C10.2654 30.1789 10.2654 30.1789 10.2417 30.2026H10.218C10.1468 30.2026 10.0757 30.2263 10.0046 30.2263C9.86237 30.2263 9.72013 30.25 9.57788 30.2263C9.50676 30.2263 9.43564 30.2026 9.38823 30.1552C9.34081 30.0841 9.31711 29.9418 9.2934 29.847C9.19857 29.3255 9.19857 28.8039 9.24599 28.2823C9.50676 28.3772 9.79125 28.4483 10.0757 28.4957C10.0046 28.9698 10.1231 29.6573 10.1706 29.847C10.2417 29.9418 10.2654 30.0604 10.2891 30.1552Z" fill="white"/>
<path d="M9.43538 25.9591C9.19831 26.2436 8.98495 26.5518 8.79529 26.8837C8.72417 27.0022 8.62934 27.1444 8.55822 27.2867C8.4634 27.263 8.36857 27.2156 8.29745 27.1681C8.22633 27.1207 8.15521 27.0733 8.10779 27.0259C8.08409 27.0022 8.03667 26.9785 8.01296 26.9548C8.01296 26.9548 7.98926 26.9548 7.98926 26.9311C8.01296 26.86 8.06038 26.8125 8.06038 26.7651C8.10779 26.6466 8.15521 26.5518 8.22633 26.4569C8.34486 26.2673 8.4634 26.0776 8.60564 25.888C8.65305 25.8169 8.70046 25.7457 8.79529 25.722C8.86641 25.6983 8.96124 25.722 9.03236 25.722C9.1746 25.7457 9.31684 25.8406 9.43538 25.9591Z" fill="white"/>
<path d="M7.60989 27.2155C7.63359 27.1918 7.60989 27.1918 7.60989 27.2155C7.70471 27.3104 7.77584 27.3815 7.87066 27.4526C7.91808 27.4763 7.94178 27.5237 7.9892 27.5474C7.9892 27.5474 7.9892 27.5474 7.9892 27.5711C7.89437 27.9742 7.82325 28.4009 7.82325 28.8276C7.82325 28.8513 7.79954 28.8513 7.79954 28.8276C7.68101 28.3298 7.53877 27.5237 7.60989 27.2155Z" fill="white"/>
<path d="M8.77115 28.0927C8.72374 28.4483 8.70003 28.8039 8.72374 29.1595C8.72374 29.3491 8.74745 29.5388 8.77115 29.7522C8.72374 29.7522 8.67632 29.7522 8.62891 29.7522H8.6052H8.5815C8.53408 29.7284 8.53408 29.7284 8.48667 29.7047C8.43926 29.681 8.39184 29.6099 8.34443 29.5388C8.2496 29.3728 8.22589 29.1832 8.22589 28.9935C8.20219 28.6379 8.2496 28.2586 8.32072 27.903C8.36813 27.9267 8.43926 27.9504 8.51038 27.9741C8.6052 28.0216 8.67632 28.069 8.77115 28.0927Z" fill="white"/>
<mask id="mask0_8111_71880" style="mask-type:luminance" maskUnits="userSpaceOnUse" x="0" y="0" width="44" height="44">
<path d="M44 22C44 9.83836 34.1379 0 22 0C9.83836 0 0 9.83836 0 22C0 34.1379 9.83836 44 22 44C34.1379 44 44 34.1379 44 22Z" fill="white"/>
</mask>
<g mask="url(#mask0_8111_71880)">
<g opacity="0.8">
<path opacity="0.8" d="M18.1124 46.5841C16.5003 46.5841 14.9831 46.4892 13.7029 46.3944L13.3473 46.3707L12.9917 46.3233C12.8258 46.2996 12.6361 46.2759 12.4227 46.2522C11.19 46.1099 8.89041 45.8729 6.35377 44.6875L5.95075 44.4979L5.59515 44.2845C0.711531 41.5345 -1.09019 37.4332 -2.08588 35.2285C-2.157 35.0862 -2.22812 34.9203 -2.29924 34.7543C-2.79709 33.7349 -3.10528 32.8341 -3.36606 31.9806L-3.41347 31.791L-3.46088 31.6013C-4.17209 29.0884 -4.33804 26.9311 -4.02985 24.7737C-3.69795 22.6164 -2.91562 20.6724 -1.51692 18.6099L-0.80571 17.4483C-0.663469 17.2112 -0.568641 16.9504 -0.497521 16.6897C0.0477379 13.9871 1.2805 12.0668 1.89688 11.1423C2.06282 10.028 2.34731 8.93752 2.72662 7.87071L2.77403 7.70476L2.84515 7.53881C2.84515 7.5151 2.86886 7.46769 2.89257 7.39657C3.17705 6.56683 3.81713 4.64657 5.45291 2.60778L6.06929 1.89657L6.70937 1.3276C8.32144 -0.142224 10.2654 -1.23274 12.3516 -1.84912C13.5133 -2.20472 14.7223 -2.41809 15.9551 -2.48921H16.0736H16.2395C16.4529 -2.48921 16.6663 -2.51291 16.8559 -2.51291C17.6145 -2.51291 18.3732 -2.44179 19.1318 -2.32326C19.6059 -2.25214 20.0801 -2.29955 20.5305 -2.48921C21.8344 -3.03447 23.1857 -3.39007 24.5844 -3.57972C24.7029 -3.60343 24.7977 -3.60343 24.8926 -3.62714C25.1059 -3.65085 25.4615 -3.69826 25.8883 -3.74567C26.6232 -3.81679 27.7611 -3.91162 28.9701 -3.91162C31.3645 -3.91162 33.427 -3.60343 35.2762 -2.96335L35.4421 -2.91593L35.5844 -2.86852C39.662 -1.32757 41.7245 0.829758 43.218 2.7026L43.2891 2.79743L43.5025 2.98709C44.8538 4.03019 45.9917 5.33407 46.8926 6.78019L47.177 7.23062L47.4141 7.70476C49.4055 11.7586 48.7654 15.528 48.5283 16.9267L48.5046 16.9979C48.3387 18.041 48.0542 19.0604 47.6986 20.0561C47.5564 21.0043 47.343 21.9526 47.0348 22.8535C46.5133 24.4655 45.7309 26.0065 44.7352 27.3815C44.1663 28.1875 43.5025 28.9698 42.7913 29.6573C42.5305 29.8944 42.3645 30.2263 42.3171 30.5819C42.2934 30.7953 42.246 31.0086 42.2223 31.222C41.6296 34.3513 40.2783 36.5323 39.7094 37.4095L38.0262 39.8276C35.9874 42.3642 33.5693 44.0237 30.6533 44.9246L29.9421 45.1379L29.1835 45.2802C28.3064 45.4461 27.4292 45.5173 26.5283 45.5173C26.4098 45.5173 26.2913 45.5173 26.149 45.5173H26.1016H25.9594H25.7934C25.4615 45.5173 25.1296 45.5884 24.7977 45.6832C22.8538 46.2996 20.7202 46.5841 18.1124 46.5841Z" stroke="url(#paint1_linear_8111_71880)" stroke-width="1.0554" stroke-miterlimit="10"/>
<path opacity="0.8" d="M18.1123 44.9009C16.5714 44.9009 15.0778 44.8061 13.8451 44.7112L13.5606 44.6875L13.2761 44.6401C13.0865 44.6164 12.8731 44.5927 12.6597 44.569C11.4507 44.4505 9.45931 44.2134 7.23086 43.1703L6.89897 43.0043L6.59078 42.8384C2.25241 40.444 0.664052 36.8643 -0.284224 34.7306C-0.355345 34.5884 -0.426465 34.3987 -0.521293 34.2328C-0.971724 33.3319 -1.25621 32.4785 -1.49328 31.7199L-1.54069 31.5539L-1.5881 31.4117C-2.20448 29.1595 -2.37043 27.263 -2.08595 25.3901C-1.80147 23.541 -1.09026 21.8104 0.1425 20.0087L1.06707 18.5151C1.23302 18.2543 1.35155 17.9462 1.39897 17.638C1.8494 15.0776 3.05845 13.2759 3.60371 12.4462L3.67483 12.3513L3.69853 12.3039C3.69853 12.2802 3.72224 12.2565 3.72224 12.2328C3.74595 12.1143 3.79336 12.0194 3.81707 11.9246C3.95931 10.8815 4.22009 9.8384 4.57569 8.84271L4.6231 8.70046L4.67052 8.55822C4.69422 8.51081 4.69422 8.4634 4.74164 8.32115C5.00241 7.53883 5.54767 5.90305 6.97009 4.14874L7.49164 3.53236L8.01319 3.05822C9.4119 1.77805 11.0951 0.829775 12.8968 0.308223C13.9399 3.35414e-05 14.983 -0.189622 16.0735 -0.237035H16.1684H16.3106C16.5003 -0.237035 16.6662 -0.260742 16.8322 -0.260742C17.6145 -0.260742 18.3731 -0.474104 19.1317 -0.331863C19.7244 -0.213328 20.3171 -0.284449 20.8623 -0.521518C21.8817 -0.971949 23.2567 -1.1379 24.8214 -1.35126C24.9399 -1.37497 25.0347 -1.37497 25.1059 -1.39867C25.3192 -1.42238 25.6511 -1.46979 26.0304 -1.4935C26.7179 -1.56462 27.7847 -1.63574 28.9464 -1.63574C31.1274 -1.63574 32.9766 -1.35126 34.6123 -0.806001L34.7546 -0.758587L34.8731 -0.711173C38.4766 0.663827 40.2546 2.46555 41.6533 4.24357C41.7244 4.3384 41.8192 4.43322 41.8429 4.48064L41.8666 4.50434L42.1274 4.74141L42.1511 4.78883C43.3602 5.7134 44.3796 6.85133 45.1619 8.1315L45.399 8.51081L45.5886 8.91383C47.2955 12.3987 46.774 15.5992 46.5369 16.9505L46.5132 17.0216C46.3472 18.0173 46.0865 18.9656 45.7309 19.9138C45.6123 20.8147 45.399 21.7155 45.1145 22.569C44.6403 23.9914 43.9528 25.3427 43.0757 26.5755C42.483 27.4289 41.7718 28.2112 41.0132 28.8987C40.6576 29.2306 40.4205 29.6574 40.3731 30.1552C40.3257 30.5108 40.2783 30.8427 40.2309 31.1983C39.7093 33.972 38.524 35.8686 37.955 36.722L36.58 38.7134C34.7546 41.0604 32.5972 42.5776 29.9895 43.3837L29.3968 43.5733L28.7567 43.6918C27.9981 43.8341 27.2158 43.9052 26.4572 43.8815C26.3386 43.8815 26.2201 43.8815 26.1016 43.8815H26.0778H26.0067C26.0067 43.8815 25.983 43.8815 25.9356 43.8815H25.7934H25.6511H25.3903C25.0347 43.9052 24.6791 43.9526 24.3235 44.0711C22.5929 44.6401 20.5778 44.9009 18.1123 44.9009Z" stroke="url(#paint2_linear_8111_71880)" stroke-width="1.0554" stroke-miterlimit="10"/>
<path opacity="0.8" d="M18.1125 42.9332C16.6427 42.9332 15.1966 42.8384 13.9875 42.7435L13.7504 42.7198L13.5134 42.6961C13.3 42.6724 13.0629 42.6487 12.8259 42.625C11.6879 42.5065 9.95733 42.3168 8.01336 41.3923L7.75259 41.2737L7.51552 41.1315C3.79354 39.0453 2.41854 35.9634 1.51767 33.9246C1.44655 33.7586 1.35172 33.5453 1.2806 33.3793C0.877587 32.5733 0.616811 31.8147 0.403449 31.1035L0.356035 30.9849L0.332328 30.8664C-0.21293 28.9224 -0.355172 27.2629 -0.118103 25.6983C0.118966 24.1099 0.759053 22.6164 1.84957 21.028L1.99181 20.8384L2.13405 20.6487C2.22888 20.5302 2.3 20.4116 2.39483 20.3168L2.94009 19.2974C3.12974 18.9655 3.24828 18.6099 3.29569 18.2306C3.65129 15.9548 4.74181 14.319 5.23966 13.5604C5.26336 13.5129 5.31078 13.4655 5.33448 13.4418L5.45302 13.2759C5.50043 13.181 5.54785 13.0625 5.59526 12.9203C5.64267 12.778 5.71379 12.5647 5.76121 12.375C5.87974 11.403 6.11681 10.4548 6.44871 9.53018L6.49612 9.41165L6.54354 9.29312C6.56724 9.19829 6.61466 9.12717 6.66207 8.96122C6.89914 8.22631 7.34957 6.87501 8.55862 5.40518L8.96164 4.90734L9.38836 4.52803C10.5737 3.43751 11.9961 2.65518 13.5371 2.18105C14.4379 1.92027 15.3388 1.75432 16.2871 1.70691H16.3582H16.4767C16.619 1.70691 16.7612 1.70691 16.9272 1.70691C17.7332 1.70691 18.5155 1.80174 19.2978 2.0151C19.9616 2.18105 20.6728 2.10993 21.2892 1.80174C22.2849 1.3276 23.6125 0.806047 25.1534 0.616392C25.2483 0.592685 25.3431 0.592685 25.4142 0.568978C25.6039 0.545271 25.9121 0.497857 26.2914 0.474151C26.9315 0.40303 27.9509 0.331909 29.0177 0.331909C30.9616 0.331909 32.5974 0.568978 34.0435 1.06682L34.1384 1.11424L34.2332 1.16165C37.5522 2.41812 39.022 4.05389 40.1599 5.50001C40.4207 5.8082 40.4444 5.85562 40.6103 6.02156L40.8237 6.21122L40.8948 6.30605C41.4401 6.73277 42.5543 7.60993 43.5263 9.19829L43.7159 9.50648L43.8819 9.81467C45.328 12.7306 44.8776 15.3858 44.6642 16.666L44.6405 16.7371C44.4983 17.6616 44.2375 18.5862 43.8582 19.4634V19.5345C43.7634 20.3642 43.5737 21.194 43.3129 21.9763C42.9099 23.2328 42.3172 24.3944 41.5349 25.4612C40.8948 26.3858 40.1125 27.2155 39.2353 27.9267C39.022 28.0927 38.856 28.306 38.7375 28.5431C38.619 28.7802 38.5478 29.041 38.5241 29.3017C38.5004 29.8233 38.4293 30.3448 38.3345 30.8664C37.8841 33.2608 36.8409 34.9203 36.3194 35.75L35.2526 37.3147C33.6642 39.4483 31.7677 40.8233 29.4681 41.5345L28.994 41.6767L28.4724 41.7716C27.8323 41.8901 27.1685 41.9375 26.5047 41.9375C26.4099 41.9375 26.2914 41.9375 26.1728 41.9375H26.1491H26.0306C26.0069 41.9375 25.9595 41.9375 25.8409 41.9375H25.7224H25.6276L25.0823 41.9612C24.703 41.9849 24.3237 42.0323 23.9681 42.1746C22.3323 42.6961 20.4595 42.9332 18.1125 42.9332Z" stroke="url(#paint3_linear_8111_71880)" stroke-width="0.9894" stroke-miterlimit="10"/>
<path opacity="0.8" d="M18.1125 40.9656C16.7138 40.9656 15.3151 40.8707 14.1534 40.7759L13.9875 40.7522L13.8215 40.7285C13.5845 40.7048 13.3237 40.6574 13.0866 40.6337C12.0198 40.5151 10.55 40.3492 8.89051 39.5906L8.70086 39.4957L8.5112 39.4009C5.35819 37.6229 4.19655 35.0151 3.3431 33.1186C3.24827 32.9289 3.15345 32.7156 3.08233 32.5259C2.72672 31.791 2.48965 31.1035 2.3 30.5108L2.27629 30.416L2.20517 30.3449C1.2806 27.0733 1.6362 24.7737 3.43793 22.1423L3.53276 22L3.62758 21.8578C3.74612 21.7156 3.86465 21.5496 3.98319 21.4074C4.14914 21.194 4.31508 20.9569 4.50474 20.7436C4.62327 20.6013 4.7181 20.4354 4.78922 20.2694L5.00258 19.7479C5.09741 19.5108 5.14483 19.2737 5.16853 19.0367C5.35819 16.9268 6.37758 15.4095 6.87543 14.6509C6.92284 14.6035 6.97026 14.5087 6.99396 14.485L7.1125 14.2953L7.15991 14.2479C7.23103 14.1293 7.34957 13.8449 7.44439 13.5604C7.49181 13.3707 7.58664 13.0625 7.68146 12.8018V12.7781C7.77629 11.9009 7.98965 11.0237 8.29784 10.194L8.32155 10.1229L8.34526 10.0518C8.39267 9.90952 8.44008 9.79099 8.4875 9.62504C8.70086 8.98495 9.05646 7.89443 10.0284 6.68538L10.3366 6.30607L10.6448 6.02159C12.9444 3.93538 15.5047 3.76943 16.3582 3.69831H16.4056H16.5004C16.619 3.69831 16.7375 3.69831 16.856 3.69831C17.8754 3.69831 18.8711 3.91168 19.8194 4.31469C19.9853 4.38581 20.175 4.40952 20.3409 4.40952C20.5306 4.40952 20.6965 4.36211 20.8625 4.26728C21.7397 3.76943 23.328 2.84487 25.3668 2.6078C25.4616 2.58409 25.5565 2.58409 25.6276 2.58409C25.8172 2.56038 26.1017 2.53668 26.4336 2.48926C27.05 2.44185 27.9746 2.37073 28.9703 2.37073C30.7009 2.37073 32.1233 2.58409 33.3323 2.98711L33.4034 3.01081L33.4746 3.03452C36.3194 4.10133 37.5284 5.45262 38.5478 6.7328C38.8086 7.0884 38.9509 7.23064 39.2353 7.51512L39.4013 7.65736L39.5198 7.79961L39.6147 7.87073C40.0888 8.25004 40.9897 8.93754 41.7957 10.2414L41.9379 10.4785L42.0565 10.7156C43.2181 13.0862 42.8388 15.2199 42.6491 16.3578V16.4289C42.5069 17.2587 42.2698 18.0884 41.9379 18.8707L41.9142 18.9418C41.9142 18.9656 41.9142 18.9656 41.8905 19.013C41.8668 19.0841 41.8668 19.1552 41.8668 19.2263L41.8431 19.3212C41.772 20.0324 41.606 20.7199 41.369 21.3837C41.0134 22.4505 40.5155 23.4462 39.8517 24.347C39.2116 25.2716 38.4767 26.0302 37.6707 26.6229C37.3151 26.8837 37.0306 27.2156 36.8172 27.6186C36.6039 28.0216 36.509 28.4483 36.509 28.8987C36.509 29.444 36.4379 30.013 36.3431 30.5582C35.9638 32.597 35.1103 33.972 34.5651 34.8018L33.7828 35.9634C32.4078 37.8837 30.772 39.1164 28.8043 39.7328L28.7095 39.7565C28.5435 39.8039 28.3776 39.8513 28.2116 39.875L28.0931 39.8987C27.5478 39.9936 27.0026 40.041 26.4573 40.041C26.3625 40.041 26.2677 40.041 26.1728 40.041H26.1491C26.1017 40.041 26.0543 40.041 26.0069 40.041C25.9595 40.041 25.8647 40.041 25.675 40.041H25.6039H25.5328C25.272 40.041 24.9401 40.0647 24.6556 40.0647C24.2526 40.0884 23.8733 40.1595 23.494 40.3018C22.0715 40.7285 20.3409 40.9656 18.1125 40.9656Z" stroke="url(#paint4_linear_8111_71880)" stroke-width="0.9235" stroke-miterlimit="10"/>
<path opacity="0.8" d="M18.1124 38.9979C16.7611 38.9979 15.4335 38.9031 14.2956 38.8082H14.1771L14.0585 38.7845C13.7977 38.7371 13.5133 38.7134 13.2525 38.6897C12.2568 38.5712 11.024 38.4526 9.69645 37.8125L9.55421 37.7414L9.43567 37.6703C6.85162 36.2242 5.87964 34.0431 5.12102 32.2888C5.02619 32.0755 4.93136 31.8621 4.83653 31.625C4.52834 31.0087 4.31498 30.3923 4.14903 29.8707L4.12533 29.7996L4.10162 29.7285C3.343 27.0259 3.60378 25.319 5.0736 23.1854L5.14472 23.0906L5.21584 22.9957C5.33438 22.8298 5.45291 22.6875 5.57145 22.5216C5.95076 22.0237 6.33007 21.5259 6.87533 20.9332C6.99386 20.8147 7.06498 20.625 7.08869 20.4591L7.1124 19.9138L7.08869 19.7005V19.4871C7.1361 17.7328 8.01326 16.4289 8.4874 15.7177C8.53481 15.6466 8.60593 15.5518 8.62964 15.5044L8.70076 15.3858L8.77188 15.291C8.86671 15.1487 9.08007 14.6509 9.26972 14.2005C9.34084 14.0108 9.43567 13.6315 9.55421 13.3233C9.57791 13.2285 9.57791 13.2048 9.60162 12.9914C9.67274 12.2565 9.8624 11.5216 10.0995 10.8341L10.1232 10.7867L10.1469 10.7393C10.218 10.5496 10.2654 10.4074 10.3365 10.2177C10.5262 9.64875 10.8107 8.81901 11.5456 7.89444L11.7589 7.63366L11.9723 7.44401C13.5844 5.99789 15.315 5.7134 16.5003 5.64228H16.5477H16.5952C16.69 5.64228 16.7611 5.64228 16.8559 5.64228C17.8516 5.64228 19.0607 6.11642 19.7008 6.42461C19.843 6.49573 20.0089 6.54315 20.1749 6.54315C20.3408 6.54315 20.5068 6.51944 20.6727 6.47202C21.0758 6.32978 21.4551 6.16384 21.8107 5.97418C22.6167 5.50004 23.9443 4.74142 25.6038 4.55177C25.6986 4.52806 25.7697 4.52806 25.8408 4.52806C26.0068 4.50435 26.2676 4.48065 26.5995 4.43323C27.1684 4.38582 28.0219 4.3147 28.9464 4.3147C30.44 4.3147 31.6727 4.48065 32.6684 4.83625L32.7158 4.85996L32.7633 4.88366C35.1339 5.78452 36.0822 6.80392 36.9831 7.96556C37.2676 8.34487 37.4809 8.60565 37.9077 8.98496L38.0025 9.07978L38.0973 9.17461C38.1921 9.26944 38.287 9.34056 38.3818 9.41168C38.7848 9.71987 39.4723 10.2651 40.065 11.2608L40.1598 11.4031L40.2309 11.569C41.1081 13.347 40.8236 15.0302 40.6577 16.0259V16.097C40.5391 16.7845 40.3495 17.4483 40.065 18.0884C39.9939 18.2544 39.9464 18.4203 39.899 18.61C39.8753 18.7285 39.8516 18.847 39.8516 18.9419L39.8279 19.0367C39.7568 19.6056 39.6383 20.1746 39.4486 20.7199C39.1641 21.597 38.7374 22.4268 38.2158 23.1617C37.4098 24.2996 36.4852 25.1056 35.371 25.6272C35.1102 25.7457 34.8732 25.9354 34.7072 26.1962C34.5413 26.4332 34.4464 26.7414 34.4227 27.0259C34.4227 27.1444 34.4227 27.2393 34.4227 27.3104C34.4702 28.1638 34.5413 29.1358 34.3516 30.1552C34.0434 31.8147 33.3322 32.9289 32.8107 33.7587C32.8107 33.7587 30.3926 37.125 28.1878 37.8125L27.9508 37.8837L27.69 37.9311C27.2633 38.0022 26.8365 38.0496 26.3861 38.0496C26.315 38.0496 26.2202 38.0496 26.1253 38.0496C26.0779 38.0496 26.0068 38.0496 25.9357 38.0496C25.8408 38.0496 25.6986 38.0496 25.4852 38.0733H25.4378H25.3904C24.537 38.097 23.7546 38.1207 23.5176 38.1681C23.399 38.1919 23.2805 38.2156 23.162 38.263C22.0003 38.7608 20.3646 38.9979 18.1124 38.9979Z" stroke="url(#paint5_linear_8111_71880)" stroke-width="0.8575" stroke-miterlimit="10"/>
<path opacity="0.8" d="M18.1126 37.0539C16.8324 37.0539 15.5522 36.959 14.4617 36.8879H14.4143H14.3669C14.0587 36.8405 13.7742 36.8168 13.5134 36.7931C12.5889 36.6983 11.6169 36.5797 10.5738 36.1056L10.5027 36.0819L10.4315 36.0582C8.41646 34.9203 7.65784 33.2371 6.94663 31.6013C6.85181 31.3642 6.73327 31.1272 6.61474 30.8901C6.37767 30.4159 6.18801 29.8944 6.04577 29.3965V29.3728V29.3491C5.42939 27.1918 5.59534 26.1013 6.73327 24.4418L6.75698 24.3944L6.78069 24.347C6.92293 24.181 7.04146 24.0151 7.16 23.8728C7.70525 23.1616 8.17939 22.5453 9.2462 21.5496C9.31732 21.4784 9.38844 21.3836 9.41215 21.2651C9.43586 21.1703 9.43586 21.0517 9.38844 20.9569L9.19879 20.4116C9.15137 20.2457 9.12767 20.056 9.12767 19.8901V19.7478V19.6293C9.17508 18.444 9.79146 17.5194 10.1945 16.903C10.2656 16.8082 10.313 16.7134 10.3604 16.6422L10.4078 16.5711L10.4553 16.5C10.6686 16.2155 11.0242 15.3858 11.2139 14.8879C11.2613 14.722 11.3798 14.319 11.4984 14.0108C11.5695 13.7737 11.6169 13.5366 11.6406 13.2996C11.7117 12.7069 11.8303 12.1142 12.0436 11.569V11.5453V11.5215C12.1384 11.2845 12.2096 11.0948 12.257 10.9052C12.4229 10.4073 12.6126 9.83836 13.1341 9.19827L13.229 9.07974L13.3238 8.98491C14.4617 7.94181 15.7182 7.75215 16.6665 7.68103H16.6902H16.7139C16.7613 7.68103 16.8324 7.68103 16.8798 7.68103C17.8281 7.68103 18.5393 8.06034 19.0134 8.32112L19.132 8.36853H19.1557C19.2979 8.43965 19.3928 8.51077 19.5113 8.55818C19.7958 8.70043 20.1514 8.74784 20.4596 8.65301C21.1234 8.48706 22.1428 8.08405 22.8065 7.70474H22.8303C23.5415 7.27801 24.632 6.66163 25.9122 6.51939C25.9833 6.49569 26.0781 6.49569 26.1492 6.49569C26.2915 6.47198 26.5522 6.44827 26.8367 6.42456C27.3583 6.37715 28.1643 6.30603 28.994 6.30603C30.2742 6.30603 31.2936 6.44827 32.0759 6.70905H32.0996H32.1234C34.0199 7.42025 34.7311 8.17888 35.4897 9.17456C35.7979 9.57758 36.1061 9.95689 36.6751 10.4547L36.7225 10.5022L36.7699 10.5496C36.9122 10.6918 37.0781 10.834 37.2678 10.9763C37.5997 11.2371 38.0738 11.5927 38.4768 12.2802L38.5242 12.3513L38.5716 12.4224C39.1643 13.6552 38.9747 14.8168 38.8324 15.694V15.7651C38.7376 16.3103 38.5953 16.8319 38.3583 17.3534C38.2397 17.6379 38.1449 17.9461 38.0975 18.2543C38.0738 18.444 38.0501 18.5862 38.0264 18.7047L38.0027 18.7996C37.9553 19.25 37.8604 19.6767 37.7182 20.1034C37.5048 20.7909 37.1729 21.431 36.7462 22.0237C36.035 23.0668 35.229 23.7069 34.1622 24.0388C33.6406 24.2047 33.2139 24.5366 32.9294 24.9871L32.8346 25.1056L32.7397 25.2241C32.479 25.5323 32.5501 26.7177 32.5975 27.4289C32.6449 28.2112 32.6923 29.0172 32.5501 29.7759C32.313 31.0797 31.744 31.9569 31.2462 32.7155C31.2462 32.7155 29.3971 35.3944 27.7139 35.8922L27.5953 35.9397L27.4768 35.9634C27.1686 36.0108 26.8367 36.0582 26.5048 36.0582C26.4337 36.0582 26.3626 36.0582 26.2678 36.0582C26.1966 36.0582 26.1255 36.0582 26.0307 36.0582C25.9122 36.0582 25.7462 36.0582 25.4617 36.0819H25.438H25.4143C24.3001 36.1293 23.6126 36.153 23.2333 36.2241C22.9725 36.2715 22.7354 36.3427 22.4984 36.4375C21.479 36.8405 20.104 37.0539 18.1126 37.0539Z" stroke="url(#paint6_linear_8111_71880)" stroke-width="0.8575" stroke-miterlimit="10"/>
</g>
</g>
<defs>
<radialGradient id="paint0_radial_8111_71880" cx="0" cy="0" r="1" gradientUnits="userSpaceOnUse" gradientTransform="translate(22.0008 24.2984) rotate(90) scale(24.7134)">
<stop offset="0.1667" stop-color="#073183"/>
<stop offset="1" stop-color="#0054F9"/>
</radialGradient>
<linearGradient id="paint1_linear_8111_71880" x1="-3.08067" y1="-4.9464" x2="47.3268" y2="47.9591" gradientUnits="userSpaceOnUse">
<stop offset="0.2057" stop-color="#89D0FF"/>
<stop offset="0.3984" stop-color="#EBBF9A"/>
<stop offset="0.6015" stop-color="#EB8280"/>
<stop offset="0.8411" stop-color="#A281FF"/>
</linearGradient>
<linearGradient id="paint2_linear_8111_71880" x1="-1.12606" y1="-2.67" x2="45.3441" y2="46.3026" gradientUnits="userSpaceOnUse">
<stop offset="0.2057" stop-color="#89D0FF"/>
<stop offset="0.3984" stop-color="#EBBF9A"/>
<stop offset="0.6015" stop-color="#EB80DA"/>
<stop offset="0.8411" stop-color="#A281FF"/>
</linearGradient>
<linearGradient id="paint3_linear_8111_71880" x1="0.84831" y1="-0.701807" x2="43.3803" y2="44.3369" gradientUnits="userSpaceOnUse">
<stop offset="0.2057" stop-color="#89D0FF"/>
<stop offset="0.3984" stop-color="#EBBF9A"/>
<stop offset="0.6015" stop-color="#EB8280"/>
<stop offset="0.8411" stop-color="#A281FF"/>
</linearGradient>
<linearGradient id="paint4_linear_8111_71880" x1="2.81979" y1="1.27326" x2="41.4049" y2="42.3659" gradientUnits="userSpaceOnUse">
<stop offset="0.2057" stop-color="#89D0FF"/>
<stop offset="0.3984" stop-color="#EBBF9A"/>
<stop offset="0.6015" stop-color="#EB80E7"/>
<stop offset="0.8411" stop-color="#A281FF"/>
</linearGradient>
<linearGradient id="paint5_linear_8111_71880" x1="4.77968" y1="3.25211" x2="39.4253" y2="40.3957" gradientUnits="userSpaceOnUse">
<stop offset="0.2057" stop-color="#89D0FF"/>
<stop offset="0.3984" stop-color="#EBBF9A"/>
<stop offset="0.6015" stop-color="#EB80D3"/>
<stop offset="0.8411" stop-color="#A281FF"/>
</linearGradient>
<linearGradient id="paint6_linear_8111_71880" x1="6.76532" y1="5.2071" x2="37.4681" y2="38.4165" gradientUnits="userSpaceOnUse">
<stop offset="0.2057" stop-color="#89D0FF"/>
<stop offset="0.3984" stop-color="#EBBF9A"/>
<stop offset="0.6015" stop-color="#A280EB"/>
<stop offset="0.8411" stop-color="#A281FF"/>
</linearGradient>
</defs>
</svg>
