<svg width="32" height="32" viewBox="0 0 32 32" fill="none" xmlns="http://www.w3.org/2000/svg">
<rect width="32" height="32" rx="16" fill="white"/>
<g clip-path="url(#clip0_953_47725)">
<path d="M9.67574 15.9062C9.616 16.9492 10.4149 17.8421 11.4528 17.9022C11.4901 17.9022 11.5275 17.9022 11.5648 17.9022C12.6101 17.9022 13.4539 17.0543 13.4464 16.0038C13.4464 14.9532 12.6027 14.1053 11.5573 14.1128C10.5568 14.1128 9.728 14.9007 9.67574 15.9062Z" fill="#0033AD"/>
<path d="M2.64213 15.4183C2.30613 15.3958 2.01493 15.6585 2 15.9961C1.98507 16.3338 2.23893 16.6264 2.57493 16.6414C2.91093 16.6639 3.19467 16.4013 3.21707 16.0636C3.23947 15.726 2.97813 15.4408 2.64213 15.4183Z" fill="#0033AD"/>
<path d="M9.55627 4.90574C9.85494 4.75567 9.9744 4.38049 9.82507 4.08034C9.67574 3.7802 9.3024 3.66014 9.00374 3.81021C8.70507 3.96029 8.5856 4.32796 8.73494 4.62811C8.88427 4.93575 9.25014 5.06332 9.55627 4.90574Z" fill="#0033AD"/>
<path d="M11.4677 8.25983C11.9307 8.02721 12.1173 7.45694 11.8859 6.99172C11.6544 6.52649 11.0869 6.3389 10.624 6.57151C10.1611 6.80413 9.9744 7.3744 10.2059 7.83962C10.4373 8.30485 11.0048 8.49244 11.4677 8.25983Z" fill="#0033AD"/>
<path d="M5.03147 10.5635C5.38987 10.7961 5.86774 10.6986 6.10667 10.3384C6.33814 9.97822 6.24107 9.49799 5.88267 9.25787C5.52427 9.02526 5.0464 9.12281 4.80747 9.48298C4.56854 9.84316 4.67307 10.3309 5.03147 10.5635Z" fill="#0033AD"/>
<path d="M6.17387 15.0807C5.6512 15.0507 5.21067 15.4484 5.1808 15.9736C5.15093 16.4989 5.54667 16.9416 6.06933 16.9716C6.592 17.0016 7.03253 16.6039 7.0624 16.0787C7.09227 15.5609 6.69653 15.1107 6.17387 15.0807Z" fill="#0033AD"/>
<path d="M5.136 21.4362C4.7552 21.6313 4.5984 22.0965 4.79253 22.4867C4.98666 22.8694 5.4496 23.0269 5.83786 22.8318C6.21866 22.6367 6.37546 22.1715 6.18133 21.7813C5.9872 21.3986 5.5168 21.2411 5.136 21.4362Z" fill="#0033AD"/>
<path d="M8.79467 13.1222C9.30987 13.4598 9.9968 13.3173 10.3253 12.7995C10.6613 12.2818 10.5195 11.5914 10.0043 11.2613C9.48907 10.9236 8.80213 11.0662 8.4736 11.5839C8.1376 12.0942 8.27947 12.7845 8.79467 13.1222Z" fill="#0033AD"/>
<path d="M20.4053 8.18494C20.8384 8.47008 21.4283 8.35002 21.712 7.91481C21.9957 7.4796 21.8763 6.88682 21.4432 6.60168C21.0101 6.31655 20.4203 6.4366 20.1365 6.87181C19.8453 7.31453 19.9648 7.89981 20.4053 8.18494Z" fill="#0033AD"/>
<path d="M22.3317 4.84589C22.6155 5.03348 22.9888 4.95094 23.1755 4.6658C23.3621 4.38066 23.28 4.00548 22.9963 3.81789C22.7125 3.6303 22.3392 3.71284 22.1525 3.99048C21.9733 4.27561 22.0555 4.6583 22.3317 4.84589Z" fill="#0033AD"/>
<path d="M20.5472 14.0976C19.5093 14.0376 18.6133 14.8405 18.5611 15.8835C18.5013 16.9265 19.3003 17.8269 20.3381 17.8795C20.3755 17.8795 20.4128 17.8795 20.4427 17.8795C21.4805 17.8795 22.3243 17.0316 22.3243 15.981C22.3317 14.9831 21.5477 14.1502 20.5472 14.0976Z" fill="#0033AD"/>
<path d="M12.0875 12.9872C12.4085 13.625 13.0581 14.0302 13.7749 14.0302C14.8128 14.0302 15.6565 13.1823 15.6565 12.1318C15.6565 11.8392 15.5893 11.5465 15.4549 11.2764C14.9845 10.3385 13.8496 9.96329 12.9237 10.436C11.9904 10.9162 11.6171 12.0568 12.0875 12.9872Z" fill="#0033AD"/>
<path d="M26.864 10.5634C27.2448 10.3684 27.3941 9.89563 27.2 9.51294C27.0059 9.13026 26.5355 8.98019 26.1547 9.17528C25.7739 9.37037 25.6245 9.8356 25.8112 10.2183C26.0128 10.601 26.4757 10.7585 26.864 10.5634Z" fill="#0033AD"/>
<path d="M22.0853 11.1639C21.5403 11.4415 21.3163 12.1094 21.5925 12.6571C21.8688 13.2049 22.5333 13.43 23.0784 13.1524C23.6235 12.8747 23.8475 12.2069 23.5712 11.6591C23.2949 11.1114 22.6304 10.8938 22.0853 11.1639Z" fill="#0033AD"/>
<path d="M15.9253 4.56064C16.3509 4.58315 16.7168 4.25299 16.7467 3.82529C16.7765 3.39758 16.4405 3.0299 16.0149 2.99989C15.5893 2.97738 15.2235 3.30003 15.1936 3.72774C15.1712 4.16295 15.4997 4.53062 15.9253 4.56064Z" fill="#0033AD"/>
<path d="M15.9179 9.46046C16.5301 9.49798 17.0528 9.02525 17.0827 8.40996C17.12 7.79466 16.6496 7.26941 16.0373 7.23939C15.4251 7.20187 14.9024 7.6746 14.8725 8.2899C14.8427 8.90519 15.3056 9.43045 15.9179 9.46046Z" fill="#0033AD"/>
<path d="M9.91467 20.8361C10.4597 20.5584 10.6837 19.8906 10.4075 19.3428C10.1312 18.7951 9.46667 18.57 8.9216 18.8476C8.37654 19.1252 8.15254 19.7931 8.4288 20.3408C8.70507 20.8886 9.3696 21.1137 9.91467 20.8361Z" fill="#0033AD"/>
<path d="M16.6347 11.0888C16.0672 11.9667 16.3061 13.1373 17.1797 13.7076C18.0533 14.2778 19.2181 14.0377 19.7856 13.1598C20.3531 12.2819 20.1141 11.1113 19.2405 10.541C18.9344 10.3384 18.576 10.2334 18.2101 10.2334C17.5755 10.2334 16.9856 10.5561 16.6347 11.0888Z" fill="#0033AD"/>
<path d="M19.9125 19.0125C19.4421 18.0745 18.3072 17.6994 17.3813 18.1721C16.448 18.6448 16.0747 19.7854 16.5451 20.7158C17.0155 21.6538 18.1504 22.029 19.0763 21.5562C20.0021 21.091 20.3829 19.9655 19.92 19.0275C19.92 19.02 19.92 19.02 19.9125 19.0125Z" fill="#0033AD"/>
<path d="M23.2053 18.8775C22.6901 18.5398 22.0032 18.6824 21.6747 19.2001C21.3387 19.7179 21.4805 20.4082 21.9957 20.7384C22.5109 21.0761 23.1979 20.9335 23.5264 20.4157C23.8624 19.9055 23.7205 19.2152 23.2053 18.8775Z" fill="#0033AD"/>
<path d="M26.8192 16.0338C26.8491 15.5085 26.4533 15.0658 25.9307 15.0358C25.408 15.0058 24.9675 15.4035 24.9376 15.9287C24.9077 16.454 25.3035 16.8967 25.8261 16.9267C26.3413 16.9567 26.7893 16.5515 26.8192 16.0338Z" fill="#0033AD"/>
<path d="M29.4251 15.3583C29.0891 15.3358 28.7979 15.5984 28.7829 15.9361C28.768 16.2737 29.0219 16.5664 29.3579 16.5814C29.6939 16.6039 29.9776 16.3413 30 16.0036C30.0149 15.6659 29.7611 15.3808 29.4251 15.3583Z" fill="#0033AD"/>
<path d="M26.9685 21.4363C26.6101 21.2037 26.1323 21.3013 25.8933 21.6614C25.6619 22.0216 25.7589 22.5019 26.1173 22.742C26.4757 22.9746 26.9536 22.877 27.1925 22.5169C27.4315 22.1567 27.3269 21.669 26.9685 21.4363Z" fill="#0033AD"/>
<path d="M9.6608 27.1541C9.37707 26.9665 9.00373 27.049 8.81707 27.3267C8.6304 27.6118 8.71253 27.987 8.9888 28.1746C9.27253 28.3622 9.64587 28.2796 9.83253 28.002C10.0267 27.7244 9.94453 27.3417 9.6608 27.1541Z" fill="#0033AD"/>
<path d="M22.4437 27.0941C22.1451 27.2442 22.0256 27.6193 22.1749 27.9195C22.3243 28.2196 22.6976 28.3397 22.9963 28.1896C23.2949 28.0395 23.4144 27.6719 23.2651 27.3717C23.1157 27.0641 22.7499 26.9365 22.4437 27.0941Z" fill="#0033AD"/>
<path d="M15.3653 20.911C15.9328 20.0331 15.6939 18.8626 14.8203 18.2848C13.9467 17.7145 12.7819 17.9546 12.2069 18.8325C11.632 19.7105 11.8784 20.881 12.752 21.4588C13.0581 21.6614 13.4165 21.7665 13.7824 21.7665C14.4245 21.774 15.0144 21.4513 15.3653 20.911Z" fill="#0033AD"/>
<path d="M11.5947 23.8148C11.1616 23.5297 10.5717 23.6497 10.288 24.0849C10.0043 24.5202 10.1237 25.1129 10.5568 25.3981C10.9899 25.6832 11.5797 25.5632 11.8635 25.1279C12.1547 24.6927 12.0352 24.1 11.5947 23.8148Z" fill="#0033AD"/>
<path d="M15.9925 27.4391C15.5669 27.4166 15.2011 27.7467 15.1712 28.1744C15.1413 28.6021 15.4773 28.9698 15.9029 28.9998C16.3285 29.0223 16.6944 28.6997 16.7243 28.272C16.7467 27.8368 16.4181 27.4691 15.9925 27.4391Z" fill="#0033AD"/>
<path d="M16 22.5392C15.3877 22.5017 14.8651 22.9744 14.8352 23.5897C14.7979 24.205 15.2683 24.7303 15.8805 24.7603C16.4928 24.7903 17.0155 24.3251 17.0453 23.7098C17.0827 23.102 16.6123 22.5692 16 22.5392Z" fill="#0033AD"/>
<path d="M20.5323 23.7398C20.0693 23.98 19.8827 24.5502 20.1216 25.0155C20.3605 25.4807 20.928 25.6683 21.3909 25.4282C21.8539 25.1955 22.0405 24.6253 21.8091 24.16C21.5701 23.6948 21.0027 23.4997 20.5323 23.7398Z" fill="#0033AD"/>
</g>
<defs>
<clipPath id="clip0_953_47725">
<rect width="28" height="26" fill="white" transform="translate(2 3)"/>
</clipPath>
</defs>
</svg>
