<svg width="44" height="44" viewBox="0 0 44 44" fill="none" xmlns="http://www.w3.org/2000/svg">
<rect width="44" height="44" rx="12" fill="url(#paint0_linear_8908_44276)"/>
<mask id="mask0_8908_44276" style="mask-type:alpha" maskUnits="userSpaceOnUse" x="8" y="8" width="28" height="28">
<rect x="8" y="8" width="28" height="28" fill="#D9D9D9"/>
</mask>
<g mask="url(#mask0_8908_44276)">
<path d="M11.6046 30.6162C10.9389 30.6162 10.369 30.3792 9.8949 29.9051C9.42082 29.431 9.18378 28.8611 9.18378 28.1954V17.6104C9.18378 17.2711 9.30009 16.9845 9.53271 16.7507C9.76534 16.5169 10.0505 16.4 10.388 16.4C10.7257 16.4 11.0128 16.5169 11.2495 16.7507C11.4863 16.9845 11.6046 17.2711 11.6046 17.6104V28.1954H29.8896C30.2289 28.1954 30.5155 28.3117 30.7493 28.5443C30.9831 28.7769 31.1 29.0621 31.1 29.3997C31.1 29.7373 30.9831 30.0244 30.7493 30.2612C30.5155 30.4979 30.2289 30.6162 29.8896 30.6162H11.6046ZM16.0208 26.2C15.3551 26.2 14.7852 25.963 14.3111 25.4889C13.837 25.0148 13.6 24.4449 13.6 23.7792V15.5954C13.6 14.9433 13.837 14.3768 14.3111 13.8959C14.7852 13.415 15.3551 13.1746 16.0208 13.1746H32.3954C33.0475 13.1746 33.614 13.415 34.0949 13.8959C34.5758 14.3768 34.8162 14.9433 34.8162 15.5954V23.7792C34.8162 24.4449 34.5758 25.0148 34.0949 25.4889C33.614 25.963 33.0475 26.2 32.3954 26.2H16.0208ZM18.0162 23.8838C18.0162 23.3199 17.8072 22.8289 17.3891 22.4109C16.9711 21.9928 16.4801 21.7838 15.9162 21.7838V23.8838H18.0162ZM30.4 23.8838H32.5V21.7838C31.9167 21.7838 31.4208 21.9928 31.0125 22.4109C30.6042 22.8289 30.4 23.3199 30.4 23.8838ZM24.19 23.1838C25.172 23.1838 26.0032 22.8484 26.6838 22.1776C27.3643 21.5067 27.7046 20.6803 27.7046 19.6984C27.7046 18.7164 27.3643 17.8852 26.6838 17.2046C26.0032 16.5241 25.1768 16.1838 24.2046 16.1838C23.213 16.1838 22.3817 16.5241 21.7109 17.2046C21.04 17.8852 20.7046 18.7116 20.7046 19.6838C20.7046 20.6755 21.04 21.5067 21.7109 22.1776C22.3817 22.8484 23.2081 23.1838 24.19 23.1838ZM15.9162 17.5838C16.4801 17.5838 16.9711 17.3782 17.3891 16.9669C17.8072 16.5557 18.0162 16.0613 18.0162 15.4838H15.9162V17.5838ZM32.5 17.5838V15.4838H30.4C30.4 16.0671 30.6056 16.563 31.0169 16.9713C31.4281 17.3796 31.9225 17.5838 32.5 17.5838Z" fill="white"/>
</g>
<defs>
<linearGradient id="paint0_linear_8908_44276" x1="22" y1="0" x2="22" y2="44" gradientUnits="userSpaceOnUse">
<stop stop-color="#7986FF"/>
<stop offset="1" stop-color="#2939CF"/>
</linearGradient>
</defs>
</svg>
