<svg width="44" height="44" viewBox="0 0 44 44" fill="none" xmlns="http://www.w3.org/2000/svg">
<path d="M0 22C0 9.84974 9.84974 0 22 0V0C34.1503 0 44 9.84974 44 22V22C44 34.1503 34.1503 44 22 44V44C9.84974 44 0 34.1503 0 22V22Z" fill="#FF5000"/>
<path d="M22 44C34.1506 44 44 34.1506 44 22C44 9.8494 34.1506 0 22 0C9.8494 0 0 9.8494 0 22C0 34.1506 9.8494 44 22 44Z" fill="#070A0E"/>
<path fill-rule="evenodd" clip-rule="evenodd" d="M12.7098 29.3766C12.052 28.974 11.6494 28.259 11.6494 27.489V23.1902C11.6494 22.6798 12.0652 22.2662 12.5756 22.2684C12.7384 22.2684 12.899 22.3124 13.0398 22.3938L22.7396 28.05C23.3072 28.38 23.657 28.9872 23.657 29.645V34.0978C23.6592 34.7094 23.1642 35.2066 22.5526 35.2066C22.348 35.2066 22.1456 35.1494 21.9718 35.0438L12.7098 29.3766ZM27.1682 21.2168C27.7358 21.5468 28.0834 22.1562 28.0856 22.8118V31.8494C28.0856 32.1156 27.9426 32.362 27.7094 32.4918L25.5864 33.6864C25.56 33.7018 25.5314 33.7128 25.5006 33.7216V28.7034C25.5006 28.0544 25.1596 27.4516 24.6008 27.1172L16.0824 22.022V16.357C16.0824 15.8466 16.4982 15.433 17.0086 15.4352C17.1714 15.4352 17.332 15.4792 17.4728 15.5606L27.1682 21.2168ZM31.4142 14.542C31.984 14.872 32.3338 15.4814 32.3338 16.1392V29.3392C32.3316 29.6098 32.182 29.8584 31.9444 29.9882L29.9314 31.075V21.8856C29.9314 21.2366 29.5904 20.636 29.036 20.3016L20.3284 15.0788V9.70638C20.3284 9.54358 20.3724 9.38298 20.4516 9.24218C20.709 8.80218 21.2744 8.65258 21.7144 8.90778L31.4142 14.542Z" fill="#00D395"/>
</svg>
