<svg width="44" height="44" viewBox="0 0 44 44" fill="none" xmlns="http://www.w3.org/2000/svg">
<rect width="44" height="44" rx="12" fill="url(#paint0_linear_8896_44266)"/>
<g clip-path="url(#clip0_8896_44266)">
<mask id="mask0_8896_44266" style="mask-type:alpha" maskUnits="userSpaceOnUse" x="8" y="8" width="28" height="28">
<rect x="8" y="8" width="28" height="28" fill="#D9D9D9"/>
</mask>
<g mask="url(#mask0_8896_44266)">
<path d="M16.4 27.8371C14.7851 27.8371 13.4085 27.2674 12.2703 26.128C11.132 24.9886 10.5629 23.6106 10.5629 21.9939C10.5629 20.3773 11.132 19.0013 12.2703 17.8659C13.4085 16.7305 14.7851 16.1628 16.4 16.1628H19.285C19.6243 16.1628 19.9109 16.2792 20.1447 16.5118C20.3785 16.7444 20.4954 17.0295 20.4954 17.3671C20.4954 17.7047 20.3785 17.9919 20.1447 18.2286C19.9109 18.4653 19.6243 18.5837 19.285 18.5837H16.4C15.4511 18.5837 14.6444 18.9158 13.9801 19.5801C13.3159 20.2444 12.9837 21.051 12.9837 22C12.9837 22.949 13.3159 23.7556 13.9801 24.4199C14.6444 25.0841 15.4511 25.4163 16.4 25.4163H19.285C19.6243 25.4163 19.9109 25.5326 20.1447 25.7652C20.3785 25.9979 20.4954 26.283 20.4954 26.6206C20.4954 26.9582 20.3785 27.2454 20.1447 27.4821C19.9109 27.7188 19.6243 27.8371 19.285 27.8371H16.4ZM18.7537 23.1058C18.4407 23.1058 18.1768 23.0004 17.9619 22.7897C17.747 22.5789 17.6396 22.3177 17.6396 22.0061C17.6396 21.6946 17.7455 21.4314 17.9572 21.2165C18.1689 21.0016 18.4313 20.8942 18.7442 20.8942H25.2464C25.5594 20.8942 25.8233 20.9996 26.0381 21.2103C26.253 21.4211 26.3604 21.6823 26.3604 21.9938C26.3604 22.3054 26.2546 22.5686 26.0429 22.7835C25.8311 22.9984 25.5688 23.1058 25.2558 23.1058H18.7537ZM24.7151 27.8371C24.3757 27.8371 24.0891 27.7208 23.8553 27.4882C23.6215 27.2556 23.5046 26.9705 23.5046 26.6329C23.5046 26.2952 23.6215 26.0081 23.8553 25.7714C24.0891 25.5346 24.3757 25.4163 24.7151 25.4163H27.6C28.549 25.4163 29.3556 25.0841 30.0199 24.4199C30.6842 23.7556 31.0163 22.949 31.0163 22C31.0163 21.051 30.6842 20.2444 30.0199 19.5801C29.3556 18.9158 28.549 18.5837 27.6 18.5837H24.7151C24.3757 18.5837 24.0891 18.4674 23.8553 18.2348C23.6215 18.0021 23.5046 17.717 23.5046 17.3794C23.5046 17.0418 23.6215 16.7546 23.8553 16.5179C24.0891 16.2812 24.3757 16.1628 24.7151 16.1628H27.6C29.215 16.1628 30.5915 16.7326 31.7298 17.872C32.868 19.0114 33.4372 20.3894 33.4372 22.0061C33.4372 23.6227 32.868 24.9987 31.7298 26.134C30.5915 27.2694 29.215 27.8371 27.6 27.8371H24.7151Z" fill="white"/>
</g>
</g>
<defs>
<linearGradient id="paint0_linear_8896_44266" x1="22" y1="0" x2="22" y2="44" gradientUnits="userSpaceOnUse">
<stop stop-color="#E3D341"/>
<stop offset="1" stop-color="#E19E00"/>
</linearGradient>
<clipPath id="clip0_8896_44266">
<rect width="28" height="28" fill="white" transform="translate(8 8)"/>
</clipPath>
</defs>
</svg>
