<svg width="44" height="44" viewBox="0 0 44 44" fill="none" xmlns="http://www.w3.org/2000/svg">
<path d="M0 22C0 9.84974 9.84974 0 22 0V0C34.1503 0 44 9.84974 44 22V22C44 34.1503 34.1503 44 22 44V44C9.84974 44 0 34.1503 0 22V22Z" fill="#FF5000"/>
<path d="M22 0C34.1514 0 44 9.8506 44 22C44 34.1514 34.1514 44 22 44C9.8506 44 0 34.1504 0 22C0 9.8506 9.8506 0 22 0Z" fill="#F5AC37"/>
<path d="M23.8104 23.5533H32.17C32.3482 23.5533 32.4324 23.5533 32.4452 23.3197C32.5135 22.4693 32.5135 21.6139 32.4452 20.7625C32.4452 20.5972 32.3631 20.5288 32.1839 20.5288H15.5468C15.3408 20.5288 15.2854 20.5972 15.2854 20.7902V23.2375C15.2854 23.5533 15.2854 23.5533 15.6151 23.5533H23.8104ZM31.5117 17.6687C31.5354 17.6063 31.5354 17.538 31.5117 17.4766C31.3721 17.1727 31.2067 16.8826 31.0147 16.6104C30.7256 16.1451 30.385 15.7164 29.9969 15.3313C29.8138 15.0986 29.6019 14.8897 29.3643 14.7125C28.1743 13.6998 26.7596 12.983 25.239 12.6226C24.4717 12.4504 23.6876 12.3682 22.9015 12.3751H15.518C15.3121 12.3751 15.2844 12.4573 15.2844 12.6365V17.5172C15.2844 17.7232 15.2844 17.7786 15.5458 17.7786H31.4127C31.4127 17.7786 31.5503 17.7509 31.578 17.6687H31.5107H31.5117ZM31.5117 26.4135C31.278 26.3877 31.0424 26.3877 30.8087 26.4135H15.5606C15.3547 26.4135 15.2854 26.4135 15.2854 26.6887V31.4605C15.2854 31.6803 15.2854 31.7358 15.5606 31.7358H22.6006C22.9372 31.7615 23.2738 31.7377 23.6035 31.6674C24.6251 31.5942 25.63 31.3724 26.5883 31.0071C26.9368 30.8863 27.2734 30.7289 27.5912 30.5398H27.6872C29.3376 29.6815 30.6781 28.3331 31.5235 26.6778C31.5235 26.6778 31.6196 26.4699 31.5117 26.4154V26.4135ZM12.5223 34.2098V34.1276V30.9239V29.8379V26.6065C12.5223 26.4273 12.5223 26.4006 12.3025 26.4006H9.3186C9.15327 26.4006 9.08496 26.4006 9.08496 26.1808V23.5682H12.2748C12.453 23.5682 12.5223 23.5682 12.5223 23.3345V20.7496C12.5223 20.5843 12.5223 20.5437 12.3025 20.5437H9.3186C9.15327 20.5437 9.08496 20.5437 9.08496 20.3239V17.9043C9.08496 17.7529 9.08496 17.7123 9.30474 17.7123H12.2609C12.4668 17.7123 12.5223 17.7123 12.5223 17.4509V10.0397C12.5223 9.81991 12.5223 9.76447 12.7975 9.76447H23.1094C23.8579 9.79417 24.6014 9.87634 25.337 10.012C26.8527 10.2921 28.309 10.8337 29.6405 11.6069C30.5236 12.1266 31.3364 12.7543 32.0601 13.477C32.6046 14.0423 33.0957 14.6541 33.5313 15.3056C33.9639 15.9659 34.3233 16.6718 34.6054 17.4093C34.6401 17.6014 34.8242 17.7311 35.0163 17.6984H37.4775C37.7933 17.6984 37.7933 17.6984 37.8071 18.0013V20.2566C37.8071 20.4764 37.725 20.5318 37.5042 20.5318H35.6063C35.4143 20.5318 35.3588 20.5318 35.3727 20.7793C35.4479 21.6169 35.4479 22.4574 35.3727 23.2949C35.3727 23.5286 35.3727 23.5563 35.635 23.5563H37.8061C37.9022 23.68 37.8061 23.8038 37.8061 23.9285C37.82 24.0879 37.82 24.2493 37.8061 24.4087V26.0729C37.8061 26.3065 37.7378 26.3758 37.5309 26.3758H34.9321C34.751 26.3412 34.5747 26.457 34.5332 26.6372C33.9144 28.246 32.9244 29.6884 31.6453 30.8447C31.178 31.2655 30.687 31.6615 30.1742 32.0268C29.6237 32.3436 29.0881 32.6733 28.5238 32.9347C27.4853 33.4019 26.3963 33.7465 25.2786 33.9653C24.2173 34.1553 23.1411 34.2415 22.061 34.2266H12.5183V34.2128L12.5223 34.2098Z" fill="#FEFEFD"/>
</svg>
