<svg width="44" height="44" viewBox="0 0 44 44" fill="none" xmlns="http://www.w3.org/2000/svg">
<path d="M0 22C0 9.84974 9.84974 0 22 0V0C34.1503 0 44 9.84974 44 22V22C44 34.1503 34.1503 44 22 44V44C9.84974 44 0 34.1503 0 22V22Z" fill="#2A5ADA"/>
<path d="M22 10L19.8836 11.2661L14.1164 14.7339L12 16V28L14.1164 29.2661L19.9365 32.7339L22.0529 34L24.1693 32.7339L29.8836 29.2661L32 28V16L29.8836 14.7339L24.1164 11.2661L22 10ZM16.2328 25.4679V18.5321L22 15.0642L27.7672 18.5321V25.4679L22 28.9358L16.2328 25.4679Z" fill="white"/>
</svg>
