<svg width="44" height="44" viewBox="0 0 44 44" fill="none" xmlns="http://www.w3.org/2000/svg">
<path d="M22 44C34.1503 44 44 34.1503 44 22C44 9.84974 34.1503 0 22 0C9.84974 0 0 9.84974 0 22C0 34.1503 9.84974 44 22 44Z" fill="url(#paint0_linear_8953_54812)"/>
<path d="M11.1719 28.6V18.2453L19.0245 24.1553V28.6H21.0287V23.738C21.0283 23.5573 20.9861 23.3792 20.9053 23.2176C20.8245 23.056 20.7073 22.9153 20.563 22.8066L11.0399 15.6368C10.8657 15.5075 10.6591 15.4289 10.443 15.41C10.2268 15.391 10.0096 15.4323 9.81558 15.5293C9.62152 15.6264 9.45816 15.7753 9.34366 15.9596C9.22916 16.1439 9.168 16.3563 9.16699 16.5733V28.6H11.1719ZM32.8889 28.6V18.2453L25.0363 24.1553V28.6H23.0321V23.738C23.0325 23.5573 23.0747 23.3792 23.1555 23.2176C23.2363 23.056 23.3535 22.9153 23.4978 22.8066L33.0209 15.6398C33.1948 15.5106 33.4012 15.432 33.6171 15.4129C33.833 15.3938 34.0499 15.4349 34.2439 15.5316C34.4379 15.6283 34.6013 15.7768 34.716 15.9607C34.8307 16.1445 34.8922 16.3566 34.8938 16.5733V28.6H32.8889Z" fill="white"/>
<defs>
<linearGradient id="paint0_linear_8953_54812" x1="22" y1="0" x2="22" y2="44" gradientUnits="userSpaceOnUse">
<stop stop-color="#4FA89B"/>
<stop offset="1" stop-color="#6ACEBB"/>
</linearGradient>
</defs>
</svg>
