<svg width="44" height="44" viewBox="0 0 44 44" fill="none" xmlns="http://www.w3.org/2000/svg">
<rect width="44" height="44" rx="12" fill="url(#paint0_linear_8794_44245)"/>
<g clip-path="url(#clip0_8794_44245)">
<mask id="mask0_8794_44245" style="mask-type:alpha" maskUnits="userSpaceOnUse" x="8" y="8" width="28" height="28">
<rect x="8" y="8" width="28" height="28" fill="#D9D9D9"/>
</mask>
<g mask="url(#mask0_8794_44245)">
<path d="M20.7896 23.2105H15.9733C15.6339 23.2105 15.3473 23.0942 15.1135 22.8616C14.8797 22.629 14.7628 22.3438 14.7628 22.0062C14.7628 21.6686 14.8797 21.3815 15.1135 21.1448C15.3473 20.908 15.6339 20.7897 15.9733 20.7897H20.7896V15.9734C20.7896 15.634 20.9059 15.3474 21.1385 15.1136C21.3711 14.8798 21.6563 14.7629 21.9938 14.7629C22.3315 14.7629 22.6186 14.8798 22.8553 15.1136C23.0921 15.3474 23.2104 15.634 23.2104 15.9734V20.7897H28.0267C28.3661 20.7897 28.6527 20.906 28.8865 21.1386C29.1203 21.3712 29.2372 21.6563 29.2372 21.9939C29.2372 22.3316 29.1203 22.6187 28.8865 22.8554C28.6527 23.0922 28.3661 23.2105 28.0267 23.2105H23.2104V28.0268C23.2104 28.3662 23.0941 28.6527 22.8615 28.8865C22.6289 29.1203 22.3438 29.2372 22.0062 29.2372C21.6685 29.2372 21.3814 29.1203 21.1447 28.8865C20.9079 28.6527 20.7896 28.3662 20.7896 28.0268V23.2105Z" fill="white"/>
</g>
</g>
<defs>
<linearGradient id="paint0_linear_8794_44245" x1="22" y1="0" x2="22" y2="44" gradientUnits="userSpaceOnUse">
<stop stop-color="#BE92FF"/>
<stop offset="1" stop-color="#7234CF"/>
</linearGradient>
<clipPath id="clip0_8794_44245">
<rect width="28" height="28" fill="white" transform="translate(8 8)"/>
</clipPath>
</defs>
</svg>
