<svg width="44" height="44" viewBox="0 0 44 44" fill="none" xmlns="http://www.w3.org/2000/svg">
<path d="M0 22C0 9.84974 9.84974 0 22 0C34.1503 0 44 9.84974 44 22C44 34.1503 34.1503 44 22 44C9.84974 44 0 34.1503 0 22Z" fill="black"/>
<path d="M31.3303 13.8401L28.1997 15.4351L13.0822 23.1352C13.031 22.7453 13.0053 22.3525 13.0052 21.9593C13.0072 20.3904 13.4192 18.8491 14.2001 17.4884C14.9811 16.1276 16.104 14.9944 17.4577 14.2012C18.8114 13.4079 20.3488 12.9821 21.9177 12.9658C23.4865 12.9496 25.0325 13.3435 26.4023 14.1085L28.1942 13.1955L28.4615 13.0591C26.82 11.8676 24.881 11.1533 22.8589 10.9949C20.8367 10.8365 18.8102 11.2403 17.0032 12.1617C15.1962 13.0831 13.6791 14.4861 12.6197 16.2157C11.5602 17.9454 10.9996 19.9343 10.9998 21.9626C10.9998 22.2428 11.0105 22.5218 11.0317 22.7997C11.0615 23.1933 10.9742 23.5869 10.7808 23.931C10.5875 24.2751 10.2966 24.5544 9.94491 24.7336L9 25.2154V27.4627L11.7819 26.0448L12.6829 25.585L13.5706 25.1329L29.5076 17.0125L31.2984 16.1006L35 14.2141V11.9679L31.3303 13.8401Z" fill="white"/>
<path d="M35 16.4625L14.4759 26.9127L12.6851 27.8268L9 29.7045V31.9497L12.6598 30.0851L15.7904 28.4901L30.9233 20.779C30.9745 21.1715 31.0002 21.5668 31.0003 21.9626C30.9994 23.5334 30.5876 25.0766 29.8058 26.439C29.0241 27.8015 27.8996 28.9357 26.544 29.7293C25.1884 30.5228 23.6488 30.9479 22.0781 30.9625C20.5073 30.9771 18.9601 30.5805 17.59 29.8123L17.48 29.8706L15.5374 30.8606C17.1785 32.0521 19.1171 32.7667 21.1389 32.9255C23.1608 33.0842 25.1871 32.6809 26.9941 31.7602C28.8011 30.8395 30.3184 29.4371 31.3783 27.7081C32.4382 25.979 32.9995 23.9907 33.0002 21.9626C33.0002 21.6799 32.9892 21.3972 32.9683 21.1178C32.9385 20.7243 33.0257 20.3309 33.2189 19.9868C33.4121 19.6427 33.7026 19.3634 34.054 19.184L35 18.7022V16.4625Z" fill="white"/>
</svg>
