<svg width="44" height="44" viewBox="0 0 44 44" fill="none" xmlns="http://www.w3.org/2000/svg">
<path d="M21.9976 43.9952C34.1466 43.9952 43.9952 34.1466 43.9952 21.9976C43.9952 9.84867 34.1466 0 21.9976 0C9.84867 0 0 9.84867 0 21.9976C0 34.1466 9.84867 43.9952 21.9976 43.9952Z" fill="url(#paint0_linear_8953_54789)"/>
<path d="M14.7524 16.5285C14.5766 16.3103 14.3098 16.189 14.0248 16.189H8.14947C8.10096 16.189 8.05852 16.1708 8.02214 16.1405C7.99182 16.1102 7.97363 16.0738 7.97363 16.0314V12.072C7.97363 12.0296 7.99182 11.9932 8.02214 11.9629C8.05852 11.9265 8.10096 11.9083 8.14947 11.9144H14.3583C15.9226 11.9144 17.2747 12.5571 18.4146 13.8364L19.9244 15.6797L16.9837 19.2631L14.7524 16.5285ZM25.6057 13.8183C26.7395 12.551 28.0977 11.9144 29.6802 11.9144H35.8708C35.9133 11.9083 35.9557 11.9265 35.986 11.9508C36.0164 11.9811 36.0285 12.0235 36.0224 12.072V16.0314C36.0224 16.0738 36.0103 16.1102 35.986 16.1405C35.9557 16.1769 35.9133 16.1951 35.8708 16.189H29.9955C29.7166 16.1829 29.4498 16.3103 29.2679 16.5285L24.9387 21.7975L29.2861 27.1029C29.4619 27.303 29.7227 27.4243 29.9894 27.4182H35.8648C35.9072 27.4122 35.9557 27.4364 35.98 27.4667C36.0042 27.5031 36.0224 27.5516 36.0164 27.5941V31.5534C36.0164 31.5958 36.0042 31.6322 35.98 31.6625C35.9497 31.6989 35.9072 31.7171 35.8648 31.711H29.6802C28.0977 31.711 26.7516 31.0683 25.6239 29.789L22.0223 25.3931L18.4207 29.789C17.2868 31.0683 15.9287 31.711 14.3462 31.711H8.14947C8.10702 31.7171 8.05852 31.6928 8.03427 31.6625C8.00395 31.6261 7.99182 31.5776 7.99789 31.5352V27.5759C7.99789 27.5334 8.01001 27.497 8.03427 27.4667C8.06458 27.4303 8.10702 27.4122 8.14947 27.4182H14.0248C14.3037 27.4182 14.5705 27.2909 14.7524 27.0787L19.0028 21.8885L25.6057 13.8183Z" fill="#00D1FF"/>
<defs>
<linearGradient id="paint0_linear_8953_54789" x1="22.0006" y1="-0.000127329" x2="22.0006" y2="11.6414" gradientUnits="userSpaceOnUse">
<stop stop-color="#090220"/>
<stop offset="1" stop-color="#170659"/>
</linearGradient>
</defs>
</svg>
