<svg width="44" height="44" viewBox="0 0 44 44" fill="none" xmlns="http://www.w3.org/2000/svg">
<path d="M0 22C0 9.84974 9.84974 0 22 0C34.1503 0 44 9.84974 44 22C44 34.1503 34.1503 44 22 44C9.84974 44 0 34.1503 0 22Z" fill="#2775CA"/>
<path d="M13.2581 18.7536C11.4476 23.5607 13.9448 28.9919 18.8142 30.7398C19.0015 30.8648 19.1887 31.1144 19.1887 31.3017V32.1758C19.1887 32.3006 19.1887 32.3631 19.1263 32.4254C19.0639 32.6751 18.8142 32.7999 18.5644 32.6751C15.0685 31.5514 12.384 28.867 11.2603 25.3711C9.38748 19.4405 12.6338 13.1351 18.5644 11.2623C18.6269 11.2 18.7517 11.2 18.8142 11.2C19.0639 11.2623 19.1887 11.4496 19.1887 11.6993V12.5733C19.1887 12.8855 19.0639 13.0728 18.8142 13.1976C16.2547 14.134 14.1945 16.1317 13.2581 18.7536Z" fill="white"/>
<path d="M24.8697 11.512C24.9321 11.2623 25.1818 11.1375 25.4316 11.2623C28.865 12.386 31.612 15.0704 32.7357 18.6288C34.6085 24.5595 31.3622 30.8648 25.4316 32.7376C25.3691 32.8 25.2443 32.7999 25.1818 32.7999C24.9321 32.7376 24.8073 32.5503 24.8073 32.3006V31.4266C24.8073 31.1144 24.9321 30.9271 25.1818 30.8023C27.7413 29.8659 29.8015 27.8682 30.7379 25.2463C32.5484 20.4392 30.0512 15.008 25.1818 13.2601C24.9945 13.1351 24.8073 12.8855 24.8073 12.6357V11.7618C24.8073 11.6368 24.8073 11.5745 24.8697 11.512Z" fill="white"/>
<path d="M22.1852 20.9387C24.8072 21.2508 26.1182 21.9999 26.1182 24.1849C26.1182 25.8704 24.8697 27.1814 22.9968 27.4937V28.9919C22.9343 29.304 22.7471 29.4913 22.4973 29.4913H21.5609C21.2488 29.4288 21.0615 29.2416 21.0615 28.9919V27.4937C19.0014 27.1814 18.0025 26.0577 17.7529 24.4971V24.4346C17.7529 24.1849 17.9401 23.9976 18.1898 23.9976H19.2511C19.4384 23.9976 19.6257 24.1226 19.688 24.3722C19.8753 25.3086 20.4372 25.9954 22.0604 25.9954C23.2464 25.9954 24.1205 25.3087 24.1205 24.3098C24.1205 23.3109 23.5587 22.9364 21.8106 22.6243C19.1887 22.312 17.9401 21.5006 17.9401 19.4404C17.9401 17.8797 19.1262 16.6312 20.999 16.3814V14.9456C21.0615 14.6334 21.2488 14.4461 21.4985 14.4461H22.435C22.7471 14.5086 22.9343 14.6959 22.9343 14.9456V16.4439C24.3701 16.5687 25.4938 17.6299 25.7436 19.0034V19.0659C25.7436 19.3155 25.5563 19.5028 25.3066 19.5028H24.3078C24.1205 19.5028 23.9332 19.378 23.8708 19.1907C23.5587 18.2543 22.9343 17.8797 21.8106 17.8797C20.5621 17.8797 19.9378 18.4414 19.9378 19.3155C19.9378 20.1896 20.3124 20.689 22.1852 20.9387Z" fill="white"/>
</svg>
