<svg width="44" height="44" viewBox="0 0 44 44" fill="none" xmlns="http://www.w3.org/2000/svg">
<path d="M0 22C0 9.84974 9.84974 0 22 0C34.1503 0 44 9.84974 44 22C44 34.1503 34.1503 44 22 44C9.84974 44 0 34.1503 0 22Z" fill="#10B75C"/>
<path fill-rule="evenodd" clip-rule="evenodd" d="M24.089 23.5312C23.9723 23.54 23.3695 23.5759 22.0249 23.5759C20.9554 23.5759 20.196 23.5438 19.9296 23.5312C15.7965 23.3494 12.7115 22.6299 12.7115 21.7685C12.7115 20.9071 15.7965 20.1885 19.9296 20.0038V22.8146C20.1999 22.8341 20.9738 22.8798 22.0433 22.8798C23.3267 22.8798 23.9694 22.8263 24.0851 22.8156V20.0058C28.2095 20.1895 31.2877 20.909 31.2877 21.7685C31.2877 22.628 28.2104 23.3474 24.0851 23.5302L24.089 23.5312ZM24.089 19.7151V17.1998H29.8448V13.3642H14.1738V17.1998H19.9286V19.7141C15.2511 19.929 11.7334 20.8555 11.7334 21.9659C11.7334 23.0762 15.2511 24.0018 19.9286 24.2176V32.2777H24.088V24.2147C28.7549 23.9998 32.2667 23.0742 32.2667 21.9649C32.2667 20.8555 28.7578 19.9299 24.088 19.7141L24.089 19.7151Z" fill="white"/>
</svg>
