<svg width="44" height="44" viewBox="0 0 44 44" fill="none" xmlns="http://www.w3.org/2000/svg">
<path d="M0 22C0 9.84974 9.84974 0 22 0V0C34.1503 0 44 9.84974 44 22V22C44 34.1503 34.1503 44 22 44V44C9.84974 44 0 34.1503 0 22V22Z" fill="white"/>
<path d="M35.8771 9.23412L34.6689 10.4422C37.5517 13.5948 39.1504 17.712 39.1504 21.9839C39.1504 26.2558 37.5517 30.373 34.6689 33.5255L35.8771 34.7337C39.083 31.2562 40.863 26.6996 40.863 21.9698C40.863 17.24 39.083 12.6834 35.8771 9.20593V9.23412Z" fill="#5A5564"/>
<path d="M10.4707 9.33885C13.6232 6.45606 17.7405 4.85741 22.0123 4.85741C26.2842 4.85741 30.4014 6.45606 33.554 9.33885L34.7621 8.13073C31.2846 4.92476 26.728 3.14484 21.9982 3.14484C17.2684 3.14484 12.7118 4.92476 9.23438 8.13073L10.4707 9.33885Z" fill="#5A5564"/>
<path d="M9.33855 33.5376C6.45917 30.3858 4.86262 26.2711 4.86262 22.002C4.86262 17.733 6.45917 13.6183 9.33855 10.4664L8.13042 9.2583C4.92445 12.7358 3.14453 17.2924 3.14453 22.0222C3.14453 26.752 4.92445 31.3086 8.13042 34.786L9.33855 33.5376Z" fill="#5A5564"/>
<path d="M33.5375 34.6531C30.385 37.5359 26.2677 39.1346 21.9959 39.1346C17.724 39.1346 13.6068 37.5359 10.4542 34.6531L9.24609 35.8613C12.7236 39.0672 17.2802 40.8472 22.01 40.8472C26.7398 40.8472 31.2964 39.0672 34.7738 35.8613L33.5375 34.6531Z" fill="#5A5564"/>
<path d="M29.6276 17.9689C29.386 15.4479 27.2114 14.6023 24.4609 14.3445V10.8732H22.3346V14.2801C21.7748 14.2801 21.2029 14.2801 20.6351 14.2801V10.8732H18.5249V14.3687H14.2119V16.644C14.2119 16.644 15.7825 16.6158 15.7583 16.644C16.0415 16.6128 16.3257 16.6928 16.5511 16.8671C16.7765 17.0414 16.9254 17.2964 16.9664 17.5783V27.1466C16.9604 27.2461 16.9345 27.3433 16.8902 27.4325C16.8459 27.5217 16.7842 27.6012 16.7087 27.6661C16.6346 27.7323 16.5479 27.7829 16.4538 27.8147C16.3597 27.8465 16.2601 27.859 16.161 27.8514C16.1892 27.8755 14.6146 27.8514 14.6146 27.8514L14.2119 30.3925H18.4847V33.9444H20.611V30.4448H22.3104V33.9283H24.4407V30.4166C28.0329 30.1992 30.5377 29.3132 30.8519 25.9506C31.1056 23.2444 29.833 22.0363 27.7993 21.549C29.0356 20.9409 29.8008 19.8133 29.6276 17.9689ZM26.6476 25.5318C26.6476 28.1736 22.1211 27.8715 20.6794 27.8715V23.184C22.1211 23.188 26.6476 22.7732 26.6476 25.5318ZM25.6609 18.9274C25.6609 21.3436 21.8835 21.0496 20.6835 21.0496V16.789C21.8835 16.789 25.6609 16.4104 25.6609 18.9274Z" fill="#F09242"/>
<path d="M21.996 44C17.6451 43.9992 13.3922 42.7084 9.77495 40.2907C6.15769 37.873 3.33852 34.437 1.67389 30.4172C0.00926087 26.3974 -0.426073 21.9742 0.42293 17.707C1.27193 13.4398 3.36715 9.52017 6.44366 6.44366C9.52017 3.36715 13.4398 1.27193 17.707 0.42293C21.9742 -0.426073 26.3974 0.00926087 30.4172 1.67389C34.437 3.33852 37.873 6.15769 40.2907 9.77495C42.7084 13.3922 43.9992 17.6451 44 21.996C44.0005 24.8857 43.4317 27.7473 42.3261 30.4172C41.2205 33.0871 39.5997 35.513 37.5564 37.5564C35.513 39.5997 33.0871 41.2205 30.4172 42.3261C27.7473 43.4317 24.8857 44.0005 21.996 44ZM21.996 1.71555C17.9875 1.71874 14.07 2.91019 10.7385 5.13933C7.407 7.36847 4.81114 10.5352 3.27901 14.2393C1.74687 17.9434 1.34724 22.0186 2.13062 25.9498C2.914 29.8809 4.84522 33.4916 7.6802 36.3255C10.5152 39.1594 14.1266 41.0891 18.0581 41.871C21.9896 42.6528 26.0646 42.2515 29.7681 40.7179C33.4716 39.1843 36.6373 36.5872 38.8652 33.2548C41.093 29.9225 42.2829 26.0044 42.2845 21.996C42.2855 19.3317 41.7614 16.6934 40.7421 14.2319C39.7228 11.7703 38.2283 9.53387 36.344 7.65034C34.4597 5.76681 32.2226 4.27317 29.7607 3.25484C27.2988 2.2365 24.6602 1.71343 21.996 1.71555Z" fill="#282138"/>
</svg>
