<svg width="44" height="44" viewBox="0 0 44 44" fill="none" xmlns="http://www.w3.org/2000/svg">
<circle cx="22" cy="22" r="22" fill="white"/>
<path d="M39.0866 21.6026C39.0866 30.9496 31.3841 38.5268 21.8826 38.5268C12.3812 38.5268 4.67871 30.9496 4.67871 21.6026C4.67871 12.2556 12.3812 4.67841 21.8826 4.67841C31.3841 4.67841 39.0866 12.2556 39.0866 21.6026Z" fill="#EC1C79"/>
<path fill-rule="evenodd" clip-rule="evenodd" d="M40.7647 21.6026C40.7647 31.9024 32.2847 40.2052 21.8824 40.2052C11.48 40.2052 3 31.9024 3 21.6026C3 11.3028 11.48 3 21.8824 3C32.2847 3 40.7647 11.3028 40.7647 21.6026ZM21.8824 38.5268C31.3838 38.5268 39.0863 30.9496 39.0863 21.6026C39.0863 12.2556 31.3838 4.67843 21.8824 4.67843C12.3809 4.67843 4.67843 12.2556 4.67843 21.6026C4.67843 30.9496 12.3809 38.5268 21.8824 38.5268Z" fill="black"/>
<path d="M41.3239 23.5607C41.3239 33.0622 33.6214 40.7647 24.1199 40.7647C14.6185 40.7647 6.91602 33.0622 6.91602 23.5607C6.91602 14.0593 14.6185 6.35681 24.1199 6.35681C33.6214 6.35681 41.3239 14.0593 41.3239 23.5607Z" fill="white"/>
<path fill-rule="evenodd" clip-rule="evenodd" d="M24.1199 39.0862C32.6944 39.0862 39.6454 32.1352 39.6454 23.5607C39.6454 14.9862 32.6944 8.03524 24.1199 8.03524C15.5454 8.03524 8.59445 14.9862 8.59445 23.5607C8.59445 32.1352 15.5454 39.0862 24.1199 39.0862ZM24.1199 40.7647C33.6214 40.7647 41.3239 33.0622 41.3239 23.5607C41.3239 14.0593 33.6214 6.35681 24.1199 6.35681C14.6185 6.35681 6.91602 14.0593 6.91602 23.5607C6.91602 33.0622 14.6185 40.7647 24.1199 40.7647Z" fill="black"/>
<path fill-rule="evenodd" clip-rule="evenodd" d="M7.09884 22.6463L3.74197 21.2476L4.49512 19.4401L7.85198 20.8388L7.09884 22.6463Z" fill="black"/>
<path fill-rule="evenodd" clip-rule="evenodd" d="M7.44564 27.1471L4.08878 26.0282L4.70801 24.1705L8.06487 25.2894L7.44564 27.1471Z" fill="black"/>
<path d="M36.7142 26.865H35.1311V24.4647H32.644V26.865H31.0566V20.9033H32.644V23.2417H35.1311V20.9033H36.7142V26.865Z" fill="black"/>
<path d="M28.8426 26.865H27.2596V22.1262H25.5381V20.9033H30.5641V22.1262H28.8426V26.865Z" fill="black"/>
<path d="M25.0922 25.6421V26.865H20.8145V20.9033H25.0922V22.1262H22.4019V23.312H24.9322V24.4275H22.4019V25.6421H25.0922Z" fill="black"/>
<path d="M16.1285 23.1426L15.0774 26.865H13.5808L11.9502 20.9033H13.5895L14.4329 24.9315H14.4675L15.5099 20.9033H16.7816L17.824 24.9315H17.8586L18.7021 20.9033H20.3414L18.7107 26.865H17.2141L16.1631 23.1426H16.1285Z" fill="black"/>
</svg>
