<svg width="32" height="32" viewBox="0 0 32 32" fill="none" xmlns="http://www.w3.org/2000/svg">
<rect width="32" height="32" rx="16" fill="#23292F"/>
<g clip-path="url(#clip0_953_47760)">
<path d="M22.3633 8H24.9648L19.5508 13.3943C17.5901 15.3468 14.4113 15.3468 12.4492 13.3943L7.03305 8H9.63672L13.75 12.0978C14.3493 12.6921 15.157 13.0253 15.9984 13.0253C16.8399 13.0253 17.6475 12.6921 18.2468 12.0978L22.3633 8Z" fill="white"/>
<path d="M9.60332 23.0001H7L12.4492 17.5725C14.4099 15.62 17.5887 15.62 19.5508 17.5725L25 23.0001H22.3984L18.25 18.8691C17.6507 18.2747 16.843 17.9415 16.0016 17.9415C15.1601 17.9415 14.3525 18.2747 13.7532 18.8691L9.60332 23.0001Z" fill="white"/>
</g>
<defs>
<clipPath id="clip0_953_47760">
<rect width="18" height="15" fill="white" transform="translate(7 8)"/>
</clipPath>
</defs>
</svg>
